<?xml version="1.0" standalone="no"?>
<!DOCTYPE svg PUBLIC "-//W3C//DTD SVG 20010904//EN"
 "http://www.w3.org/TR/2001/REC-SVG-20010904/DTD/svg10.dtd">
<svg version="1.0" xmlns="http://www.w3.org/2000/svg"
 width="700.000000pt" height="700.000000pt" viewBox="0 0 700.000000 700.000000"
 preserveAspectRatio="xMidYMid meet">
<metadata>
Created by potrace 1.14, written by Peter Selinger 2001-2017
</metadata>
<g transform="translate(0.000000,700.000000) scale(0.100000,-0.100000)"
fill="#000000" stroke="none">
<path d="M4465 6922 c-131 -70 -144 -87 -151 -185 -7 -110 -56 -231 -103 -257
-12 -6 -33 -5 -62 4 -62 19 -134 13 -203 -18 -32 -14 -86 -34 -120 -45 -79
-25 -150 -57 -282 -131 -59 -32 -119 -62 -134 -65 -15 -3 -53 -30 -86 -60 -32
-29 -84 -68 -114 -86 -76 -45 -98 -66 -126 -121 -21 -42 -51 -78 -183 -217
-111 -118 -195 -262 -210 -362 -6 -37 -23 -97 -37 -135 -14 -38 -26 -94 -28
-128 -2 -49 -11 -76 -44 -139 -47 -87 -46 -102 8 -163 34 -39 32 -51 -28 -177
-47 -98 -92 -210 -92 -229 0 -25 -55 -101 -131 -182 -103 -110 -128 -146 -139
-206 -15 -81 -55 -143 -175 -269 -112 -119 -143 -158 -287 -361 -56 -79 -127
-160 -228 -260 -185 -183 -192 -194 -205 -335 -15 -161 -24 -209 -66 -323 -30
-83 -40 -169 -39 -342 1 -263 36 -492 96 -627 14 -31 32 -85 40 -121 11 -46
30 -86 64 -136 30 -43 57 -99 70 -141 50 -166 98 -252 209 -375 78 -87 147
-140 226 -170 107 -42 132 -63 216 -177 86 -118 134 -158 217 -176 37 -9 96
-18 132 -22 36 -3 76 -7 90 -10 14 -2 43 -6 65 -9 38 -4 140 -20 196 -31 15
-3 67 -17 115 -31 49 -15 114 -33 144 -42 40 -12 103 -16 235 -16 262 -1 342
13 580 105 150 58 301 103 380 113 22 3 87 8 145 11 202 10 277 43 444 198 49
46 88 64 150 72 76 9 96 15 168 52 79 41 148 105 203 188 39 58 66 78 193 141
7 4 25 25 41 48 26 37 94 108 162 168 43 37 85 104 100 155 18 66 74 179 105
211 57 61 66 88 75 210 8 132 6 123 66 254 65 142 62 176 -34 325 -57 90 -67
138 -78 403 -10 218 -19 301 -45 410 -10 41 -21 107 -24 145 -7 74 -23 185
-31 207 -2 7 -7 31 -10 53 -5 35 -50 118 -80 148 -35 36 -47 69 -45 124 4 122
3 134 -29 202 l-31 68 20 64 c26 85 25 94 -12 142 -18 23 -39 53 -46 67 -20
37 -26 122 -13 163 19 58 16 92 -14 150 l-29 54 27 76 c31 87 33 111 11 162
-18 44 -15 89 12 187 18 66 18 70 0 121 -14 41 -17 73 -13 142 l4 89 -43 39
c-31 29 -45 50 -49 76 -11 68 -26 112 -56 159 -16 26 -39 79 -51 117 -37 123
-90 199 -200 287 -112 90 -236 143 -408 173 -56 10 -142 47 -174 76 -28 24
-36 41 -49 106 -27 126 -47 273 -51 375 -4 92 -16 96 -121 40z m64 -79 c-2
-44 6 -126 17 -177 3 -12 7 -32 10 -46 20 -101 62 -220 88 -248 29 -32 62 -45
239 -91 153 -40 209 -65 357 -159 101 -65 173 -166 183 -257 5 -44 35 -115 49
-115 15 0 46 -81 51 -131 6 -58 19 -83 74 -138 49 -50 52 -68 22 -143 -23 -60
-19 -89 16 -112 31 -21 31 -36 0 -86 -34 -55 -37 -84 -16 -174 24 -100 21
-159 -10 -192 -21 -23 -24 -23 -30 -7 -4 10 -10 50 -13 88 -36 364 -59 501
-127 735 -86 297 -224 512 -374 585 -103 51 -205 38 -327 -41 -38 -24 -73 -44
-78 -44 -5 0 -9 24 -8 54 1 45 -3 61 -25 89 -70 93 -278 156 -494 151 -128 -2
-149 -6 -275 -44 -159 -49 -191 -35 -43 18 44 16 107 42 140 57 62 30 80 31
228 24 64 -4 70 -2 91 22 13 15 32 64 45 115 48 188 63 225 106 271 32 33 49
43 74 43 31 0 31 0 30 -47z m-1325 -874 c-31 -32 -44 -36 -44 -14 0 21 40 55
57 48 11 -4 8 -12 -13 -34z m1384 -11 c-5 -24 -12 -52 -14 -63 -10 -44 -5
-143 10 -201 22 -84 36 -119 126 -309 96 -203 129 -288 160 -420 15 -62 18
-108 16 -205 -2 -69 -6 -138 -10 -155 -12 -56 -35 -190 -40 -240 -3 -27 -8
-75 -12 -105 -3 -30 -8 -57 -10 -59 -2 -2 -14 18 -26 45 -23 53 -24 71 -18
544 3 229 -4 310 -31 419 -22 84 -46 129 -117 218 -28 34 -79 108 -114 165
-89 145 -133 186 -235 222 -45 15 -87 34 -93 41 -13 15 -15 14 161 59 53 14
125 38 160 55 91 42 99 41 87 -11z m430 -68 c79 -48 165 -221 241 -482 16 -57
32 -114 35 -128 2 -14 11 -54 20 -90 16 -71 22 -99 32 -169 4 -25 8 -55 10
-66 2 -11 6 -47 10 -80 3 -33 7 -76 10 -95 7 -49 6 -247 -1 -295 -11 -71 -36
-134 -62 -155 -73 -57 -79 -26 -84 428 -4 302 -24 426 -99 588 -37 79 -52 104
-182 294 -106 156 -122 227 -57 254 45 19 91 18 127 -4z m-1103 -40 c40 -15
26 -31 -48 -55 -163 -52 -210 -165 -203 -480 3 -99 7 -193 9 -210 3 -16 8 -77
12 -135 4 -58 9 -121 11 -140 11 -115 4 -470 -12 -560 -2 -14 -7 -41 -10 -60
-3 -19 -19 -75 -35 -125 -41 -129 -56 -203 -54 -262 2 -62 -4 -64 -73 -30 -58
29 -120 34 -161 12 -49 -25 -73 -73 -86 -169 -28 -204 -46 -195 -43 21 3 174
2 179 -21 212 -47 66 -200 109 -266 75 -41 -21 -45 -18 -45 37 0 110 -52 192
-139 217 -87 27 -227 3 -306 -51 -16 -12 -58 -48 -93 -81 -49 -47 -65 -57 -75
-47 -20 20 34 106 126 202 82 85 117 138 117 178 0 25 44 137 96 246 22 44 41
91 42 104 2 13 -9 55 -24 93 l-27 68 22 45 c22 43 52 176 65 280 17 138 45
217 100 280 14 16 31 43 37 60 15 35 92 135 143 184 54 52 47 21 -35 -148
-128 -264 -172 -448 -129 -551 13 -32 49 -60 78 -60 45 0 126 113 243 339 67
129 142 214 185 209 20 -2 34 -13 49 -38 17 -29 20 -54 22 -155 1 -68 -4 -157
-13 -205 -8 -47 -17 -101 -20 -120 -7 -42 -42 -172 -79 -295 -63 -213 -80
-325 -79 -515 1 -132 17 -215 56 -277 57 -93 161 -100 239 -16 56 59 107 206
126 358 14 115 5 537 -12 565 -2 3 -7 35 -10 70 -4 36 -8 67 -10 70 -16 27
-26 348 -14 439 15 104 19 124 45 200 41 119 85 178 159 212 45 21 100 24 140
9z m212 -369 c23 -2 82 -62 93 -97 17 -51 20 -114 9 -158 -37 -141 -187 -203
-268 -110 -28 31 -31 42 -31 98 0 64 12 105 52 182 23 45 88 94 116 89 9 -2
22 -4 29 -4z m153 -666 c28 -27 52 -83 65 -150 6 -35 8 -250 1 -280 -6 -29
-20 -174 -20 -215 -1 -48 30 -162 59 -221 36 -70 79 -115 141 -145 62 -30 69
-57 22 -83 -25 -15 -29 -14 -65 15 -50 40 -93 54 -165 54 -59 0 -128 -21 -128
-38 0 -25 -33 -20 -62 8 -39 39 -98 42 -148 5 -43 -32 -58 -22 -26 18 62 76
91 143 110 252 9 48 16 232 20 485 5 305 15 335 119 327 36 -3 55 -11 77 -32z
m1334 -200 c4 -16 8 -68 11 -115 10 -158 15 -193 31 -224 54 -100 55 -104 48
-140 -3 -20 -15 -48 -26 -62 -17 -20 -27 -24 -57 -21 -70 7 -146 -36 -180
-101 -27 -51 -76 -88 -220 -163 -75 -39 -146 -107 -154 -146 -7 -36 20 -94 53
-110 17 -9 71 -13 165 -12 77 0 152 -4 167 -10 41 -16 50 -42 28 -78 -20 -34
-59 -48 -112 -39 -155 24 -203 24 -254 0 -36 -17 -64 -58 -64 -94 0 -28 23
-80 49 -109 12 -13 18 -27 15 -30 -9 -9 -94 90 -100 116 -3 12 4 62 15 111 27
115 27 121 -9 196 -21 44 -33 85 -37 132 -9 105 -4 102 -132 97 -141 -6 -154
0 -105 52 41 43 64 91 64 130 0 39 13 29 39 -30 28 -65 100 -135 155 -152 223
-68 493 196 560 547 4 19 10 80 12 135 3 55 7 109 9 120 2 11 4 27 4 35 1 23
19 -1 25 -35z m126 -721 c0 -13 -4 -25 -9 -28 -10 -7 -21 27 -21 64 1 24 1 24
15 6 8 -11 15 -30 15 -42z m-3131 9 c25 -59 103 -123 149 -123 12 0 33 7 46
16 31 20 35 11 32 -64 -2 -42 -8 -68 -19 -79 -15 -16 -18 -14 -32 20 -8 20
-15 41 -15 46 0 18 -41 23 -148 16 -124 -7 -162 2 -162 38 0 26 22 60 79 120
42 44 55 46 70 10z m-431 -142 c8 -4 18 -43 24 -87 13 -103 46 -172 110 -229
92 -83 207 -96 314 -35 30 16 54 28 54 26 0 -3 -17 -22 -38 -43 -91 -91 -111
-144 -78 -209 20 -37 12 -45 -36 -38 -48 8 -58 -2 -58 -61 0 -51 -38 -126
-117 -232 -69 -93 -80 -122 -58 -161 25 -46 40 -60 100 -96 76 -46 180 -68
250 -52 11 2 25 5 30 5 15 1 59 42 79 73 24 36 23 110 -1 142 -10 14 -39 37
-65 51 -26 14 -50 30 -52 34 -3 4 26 6 63 3 40 -2 77 1 90 7 23 13 91 146 91
180 0 33 -18 61 -40 61 -10 0 -25 3 -34 6 -14 5 -14 9 -1 32 13 25 25 40 91
115 33 38 45 34 38 -10 -17 -114 2 -179 63 -212 41 -21 80 -13 124 26 33 30
42 34 50 22 5 -8 9 -20 9 -28 0 -8 11 -33 25 -56 73 -125 311 -94 419 53 113
156 75 368 -81 446 -18 9 -33 20 -33 25 0 4 20 34 45 67 27 36 45 70 45 87 0
37 14 40 101 24 l74 -14 -40 -21 c-52 -27 -91 -62 -109 -97 -20 -38 -6 -70 54
-123 79 -69 86 -124 34 -292 -48 -157 -54 -185 -56 -241 -2 -99 35 -130 148
-124 177 9 355 117 325 197 -14 37 -50 49 -145 51 -111 2 -116 8 -111 118 4
92 30 149 79 173 49 23 87 -13 101 -95 8 -48 58 -150 86 -176 13 -12 34 -31
47 -43 12 -11 22 -32 23 -47 5 -206 17 -248 71 -267 34 -12 95 1 119 25 28 28
24 65 -16 148 -19 40 -35 80 -35 90 0 9 28 38 63 63 34 26 75 60 91 77 35 37
56 40 57 9 4 -101 36 -180 88 -215 71 -48 151 11 165 121 10 75 26 88 44 38
15 -44 72 -103 120 -124 114 -51 215 2 218 114 1 26 2 52 3 58 1 6 50 10 125
9 139 0 215 15 311 62 75 37 115 73 160 144 20 30 40 55 45 55 18 0 28 -37 54
-198 15 -89 29 -168 31 -175 19 -56 26 -253 14 -366 -7 -67 12 -198 39 -268
11 -29 38 -84 60 -123 67 -114 78 -188 41 -250 -53 -86 -83 -83 -93 9 -4 30
-17 98 -30 150 -21 84 -48 231 -61 341 -13 105 -18 133 -35 215 -42 203 -108
278 -270 309 -278 53 -462 -127 -463 -454 0 -52 3 -111 6 -130 20 -112 32
-159 76 -295 67 -204 75 -232 109 -370 51 -204 78 -370 62 -380 -4 -3 -26 33
-49 80 -48 97 -101 149 -140 140 -26 -7 -60 -40 -62 -59 0 -6 -3 -20 -5 -31
-8 -33 -5 -99 6 -170 21 -130 22 -175 4 -182 -11 -4 -23 2 -35 18 -21 28 -62
157 -79 249 -16 89 -16 85 -40 180 -32 130 -95 246 -230 425 -125 166 -190
277 -190 326 0 34 34 69 67 69 40 0 87 -63 164 -216 99 -199 159 -263 224
-238 46 18 65 143 40 269 -42 218 -152 393 -291 461 -165 81 -474 -36 -474
-179 0 -44 -8 -30 -31 58 -45 174 -90 203 -240 155 -131 -42 -181 -51 -275
-49 -143 2 -230 34 -447 165 -254 153 -376 125 -444 -100 -29 -95 -22 -148 24
-193 31 -30 81 -43 183 -49 227 -13 293 -63 284 -214 -7 -119 -128 -416 -230
-568 -56 -83 -202 -226 -277 -270 -286 -171 -534 -124 -602 113 -32 112 10
175 115 169 45 -2 99 -19 218 -69 223 -93 377 -53 466 123 66 131 47 365 -39
478 -34 45 -40 47 -180 78 -139 31 -315 82 -453 132 -187 68 -263 84 -381 80
-122 -4 -131 -5 -199 -40 -151 -77 -240 -260 -246 -508 -2 -98 14 -289 28
-336 3 -9 8 -33 11 -52 3 -19 10 -53 16 -75 5 -22 12 -50 15 -63 23 -106 124
-354 191 -467 49 -82 157 -220 238 -301 278 -281 609 -419 975 -408 58 2 116
6 130 9 14 3 39 8 55 10 203 36 406 176 512 353 91 153 128 307 127 532 -1
172 -22 312 -72 485 -62 211 -75 288 -76 420 0 99 26 191 58 202 30 10 48 6
162 -33 188 -64 272 -39 318 93 7 20 17 38 23 40 6 2 18 -30 28 -74 26 -123
54 -200 93 -256 217 -314 319 -540 363 -807 9 -56 22 -236 13 -190 -3 14 -12
61 -20 105 -80 415 -396 914 -625 990 -111 37 -251 0 -295 -78 -28 -50 -21
-84 39 -208 60 -122 129 -403 129 -519 0 -157 -48 -330 -160 -575 -33 -71 -68
-150 -80 -175 -53 -117 -69 -239 -39 -297 18 -34 68 -77 104 -87 11 -4 26 -13
33 -20 9 -11 0 -19 -46 -40 -105 -48 -249 -75 -430 -80 -113 -2 -180 7 -299
43 -38 12 -122 33 -185 46 -155 34 -148 33 -205 41 -27 3 -52 8 -55 9 -6 3
-92 12 -198 20 -34 2 -71 9 -81 15 -11 5 -53 49 -94 97 -141 167 -237 245
-317 260 -69 12 -199 133 -283 262 -51 78 -72 125 -92 204 -17 67 -52 139 -99
205 -33 46 -66 126 -66 160 0 9 -9 31 -20 49 -51 85 -84 312 -84 588 1 175 11
262 44 370 35 114 40 146 44 275 5 154 20 180 195 333 110 96 188 189 296 347
126 186 209 282 271 315 34 17 35 17 52 6z m3540 -40 c30 -15 42 -27 40 -39
-3 -15 -17 -17 -117 -15 -220 3 -281 43 -116 75 55 11 152 1 193 -21z m-2675
-47 c-6 -88 -31 -136 -58 -114 -19 16 -6 83 23 128 19 30 38 23 35 -14z m397
2 c0 -7 -6 -19 -14 -25 -11 -9 -15 -7 -19 8 -3 11 -2 22 1 25 11 11 32 6 32
-8z m651 -94 c-16 -37 -36 -84 -46 -104 l-18 -37 -26 18 c-14 10 -42 24 -62
30 -75 24 -87 74 -21 86 20 4 71 23 112 44 41 20 78 35 82 34 4 -2 -6 -34 -21
-71z m731 -29 c37 -62 27 -148 -19 -159 -16 -4 -28 -2 -34 7 -12 19 -11 132 1
164 12 32 29 28 52 -12z m1008 -47 c-1 -42 -15 -15 -24 44 -6 45 -6 45 9 16 8
-15 15 -42 15 -60z m-1484 19 c7 -22 20 -44 28 -50 18 -14 22 -41 12 -85 -12
-50 -60 -153 -79 -168 -40 -33 -94 12 -104 87 -4 32 1 59 21 111 30 76 81 153
98 148 5 -2 16 -21 24 -43z m227 -62 c51 -121 45 -171 -13 -111 -57 59 -70
113 -40 168 14 27 20 21 53 -57z m-1074 -202 c11 -17 -4 -64 -27 -84 -20 -19
-71 -30 -73 -16 -4 25 -2 37 9 71 7 20 21 38 30 40 31 7 53 3 61 -11z m2072
-574 c85 -57 91 -185 12 -247 -39 -30 -63 -22 -96 32 -49 79 -56 174 -15 217
25 27 57 26 99 -2z m153 -726 c40 -117 80 -220 89 -228 9 -9 38 -16 74 -18 75
-3 100 -11 113 -35 15 -27 -6 -71 -69 -150 -65 -81 -79 -106 -91 -172 -6 -31
-26 -76 -47 -107 -52 -79 -208 -229 -292 -281 -127 -79 -150 -99 -219 -186
-77 -99 -119 -123 -252 -149 -66 -13 -100 -27 -150 -59 -36 -23 -74 -51 -84
-61 -33 -34 -138 -115 -148 -115 -10 0 -5 11 28 55 51 68 82 229 77 393 -2 61
0 112 4 112 4 0 21 -26 38 -57 62 -118 119 -158 219 -151 95 6 178 57 251 152
36 47 84 150 91 194 3 20 8 40 11 44 2 5 6 47 8 94 2 48 6 89 9 91 2 2 10 -13
16 -34 39 -120 121 -162 227 -114 81 37 123 135 128 301 4 130 -29 320 -75
425 -7 19 -35 117 -46 168 -3 12 -8 47 -11 77 -5 51 -4 54 12 39 9 -9 49 -111
89 -228z m-1447 -222 c18 -30 36 -73 41 -97 9 -36 7 -47 -12 -75 -45 -66 -61
-48 -147 163 -48 120 -56 159 -37 172 16 11 109 -86 155 -163z m54 -746 c10
-26 51 -214 64 -293 11 -68 44 -176 78 -258 41 -95 47 -88 -83 -96 -83 -6
-179 -22 -273 -45 -20 -5 -39 -6 -41 -2 -2 3 18 44 45 90 62 108 101 227 139
426 30 154 43 205 55 205 3 0 10 -12 16 -27z"/>
<path d="M2042 3463 c-7 -3 -50 -62 -97 -131 -46 -70 -100 -145 -120 -167 -78
-86 -92 -163 -41 -229 28 -38 110 -81 176 -94 104 -20 262 5 345 53 181 107
171 385 -18 510 -73 48 -197 78 -245 58z m167 -286 c25 -31 -13 -97 -57 -97
-22 0 -24 3 -18 32 6 30 41 78 57 78 3 0 11 -6 18 -13z"/>
</g>
</svg>
