<?xml version="1.0" encoding="UTF-8" standalone="no"?>
<!-- Created with Inkscape (http://www.inkscape.org/) -->

<svg
   version="1.1"
   id="svg1"
   width="184.32001"
   height="103.68"
   viewBox="0 0 184.32001 103.68"
   xmlns="http://www.w3.org/2000/svg"
   xmlns:svg="http://www.w3.org/2000/svg">
  <defs
     id="defs1" />
  <path
     style="fill:#003329"
     d="m 92.112004,103.584 c -30.672001,0 -61.344003,0 -92.016004,0 0.08021221,-7.868018 -0.16005979,-15.767771 0.12000001,-23.616 0.74746366,-0.396536 1.50754849,-0.780452 2.28000009,-1.152 0.8703027,-0.633697 2.1510985,-0.856902 3.5520001,-0.96 0.8585357,-1.004063 2.5304462,0.08008 3.439452,0.288 1.1069668,0.06872 1.8289518,1.041942 2.3205558,1.536007 0.967952,0.821963 1.578858,1.222364 2.207993,0.287993 0.919087,-0.533489 1.391189,-1.513964 2.112,-2.245729 0.243555,-1.152525 1.635727,-1.082341 2.530722,-1.642246 1.05837,-0.249329 1.11715,-1.306651 2.461286,-1.404938 1.081635,-1.364666 3.357018,1.156433 4.234914,-0.408363 1.82056,0.151277 2.904047,-0.527607 3.866805,-1.40265 1.293259,-0.450772 2.380758,-1.342248 4.288845,-0.959992 1.100191,0.389268 2.390008,1.240469 2.873437,2.207915 1.89141,-0.358899 2.928685,0.620992 3.748094,1.368 0.153268,2.11097 2.337469,0.917024 3.35597,1.820649 -0.134458,1.156695 3.087994,-1.42281 3.504,0.555354 1.048216,0.59212 2.602186,-0.298656 3.888004,0.288 0.811671,0.405825 1.838738,0.817395 2.592002,1.248 0.712129,0.471871 1.20834,1.15966 1.728,1.824 1.300014,0.02376 2.378103,1.304617 3.360002,0.144 1.049391,-0.520209 2.169238,-1.155333 2.784004,-2.256083 1.316817,-0.04 1.933845,-0.767486 3.072005,-1.103917 1.363775,-0.425542 2.940166,0.109884 3.648,0.816 1.363395,0.220605 1.369936,1.798064 2.496,2.256 0.570142,0.597858 1.672143,0.663857 2.4,1.104 1.078897,0.277596 1.539648,1.173337 2.821478,1.248 0.367407,0.8361 2.210239,0.196776 2.458522,1.152 1.029327,0.490673 2.096168,0.943832 3.024,1.536 1.074314,0.353529 1.614821,1.247828 2.996933,0.672 1.700961,-0.226236 2.224105,0.573703 3.177151,1.223995 0.352712,0.927575 1.935293,0.520584 2.129916,1.56 0.457358,0.902644 1.281846,1.438157 1.68,2.400005 0.272192,1.596488 1.132261,0.562687 1.2,-0.576 1.005296,-0.463197 1.122035,-1.81495 1.909478,-2.496 1.546318,0.138313 1.541487,-1.492141 2.986517,-1.536 0.224755,-1.225499 2.728314,-0.215192 3.359994,-0.443196 0.62346,-0.572812 2.07748,-0.315055 2.496,-1.092804 0.39851,-0.769491 1.64128,-0.694724 2.112,-1.392 0.73402,-0.545983 2.07139,-0.488611 2.832,-1.008 0.89796,-0.38204 1.63914,-0.920856 2.592,-1.248 0.61069,-0.557309 1.98172,-0.35428 2.256,-1.248 1.1447,-0.4553 1.40219,-1.797812 2.496,-2.304 0.97452,-0.242485 2.49802,-1.389008 3.648,-0.48 1.30361,0.238244 2.18261,0.721495 3.07208,1.248 0.92987,0.836942 1.877,1.463588 2.78477,2.112 1.15089,0.827579 2.29218,-0.107948 3.35999,-0.432 0.73809,-0.461911 0.94826,-1.45174 1.92,-1.68 0.74236,-0.506652 1.76858,-0.999172 2.77346,-1.248 1.09878,-0.687643 2.67739,0.390675 3.6586,-0.288 -0.002,-1.932493 2.71534,-0.537455 3.36069,-0.421729 0.65062,-0.900421 2.07219,-0.472016 3.0208,-1.549471 1.05957,-0.991048 1.95239,-2.064014 3.91591,-1.7728 0.63303,-0.696829 1.76224,-1.672013 2.77377,-2.208003 1.93686,-0.327687 3.25206,0.35703 4.50837,0.960003 0.82046,0.288799 1.55927,0.897527 2.41055,1.247995 1.96587,0.526786 2.57704,0.724903 4.69691,0.289922 1.35295,0.03804 2.28715,0.413319 3.21731,1.390007 0.98692,0.931196 2.45427,0.63724 2.81724,1.882094 0.51409,0.858571 1.30579,1.439532 1.824,2.293982 0.97025,0.559575 1.35063,0.909691 2.40237,-0.288 0.54065,-0.454158 1.22936,-1.26404 2.20604,-1.536 1.18194,-0.02821 2.37479,-1.263934 3.64507,-0.421729 1.04893,0.435647 2.77824,0.190914 3.36,1.093729 0.95821,0.209789 1.63059,0.705406 2.352,1.152 1.40811,0.364816 0.79458,2.751274 0.912,4.406777 0,6.403075 0,12.806149 0,19.209223 -30.672,0 -61.344,0 -92.016006,0 z"
     id="path1" />
</svg>
