<?xml version="1.0" encoding="UTF-8" standalone="no"?>
<!-- Created with Inkscape (http://www.inkscape.org/) -->

<svg
   version="1.1"
   id="svg1"
   width="704"
   height="325"
   viewBox="0 0 704 325"
   sodipodi:docname="aa.svg"
   inkscape:version="1.3.2 (091e20e, 2023-11-25, custom)"
   xmlns:inkscape="http://www.inkscape.org/namespaces/inkscape"
   xmlns:sodipodi="http://sodipodi.sourceforge.net/DTD/sodipodi-0.dtd"
   xmlns="http://www.w3.org/2000/svg"
   xmlns:svg="http://www.w3.org/2000/svg">
  <defs
     id="defs1" />
  <sodipodi:namedview
     id="namedview1"
     pagecolor="#505050"
     bordercolor="#ffffff"
     borderopacity="1"
     inkscape:showpageshadow="0"
     inkscape:pageopacity="0"
     inkscape:pagecheckerboard="1"
     inkscape:deskcolor="#505050"
     inkscape:zoom="0.2234819"
     inkscape:cx="-38.0344"
     inkscape:cy="73.831482"
     inkscape:window-width="1366"
     inkscape:window-height="705"
     inkscape:window-x="-8"
     inkscape:window-y="-8"
     inkscape:window-maximized="1"
     inkscape:current-layer="g1" />
  <g
     inkscape:groupmode="layer"
     inkscape:label="Image"
     id="g1">
    <path
       style="fill:#000000"
       d="M 0,211.04545 V 97.090909 L 2.5454545,94.545455 C 3.9454545,93.145455 5.6454462,92 6.3232137,92 c 0.6777675,0 2.0029086,-0.9 2.944758,-2 0.9418493,-1.1 2.3230033,-2 3.0692313,-2 1.195223,0 2.546384,-0.913191 7.370591,-4.981463 C 20.37208,82.458342 21.416723,82 22.029222,82 22.641721,82 23.726183,81.416674 24.439138,80.703719 25.663631,79.479226 27.037005,78.997922 38,75.951265 c 5.896898,-1.638769 23.529438,-2.361542 26.876018,-1.101671 1.44319,0.543312 3.861482,1.25799 5.373982,1.588175 3.074404,0.671154 4.376713,12.739171 1.5,13.89995 -1,0.403509 -1,0.520176 0,0.583334 0.6875,0.04342 1.25,0.64389 1.25,1.334375 0,0.690486 1.6875,3.096188 3.75,5.346004 5.483911,5.981958 6.603743,7.500848 8.531465,11.571668 1.439856,3.04057 2.641652,3.96581 6.978959,5.37292 2.881767,0.9349 5.667076,2.09451 6.189576,2.5769 0.5225,0.48239 1.91526,0.87708 3.09501,0.87708 1.17976,0 2.9595,0.9 3.95499,2 0.99549,1.1 2.41523,2 3.15499,2 0.73975,0 1.34501,0.45 1.34501,1 0,0.55 0.675,1 1.5,1 0.825,0 1.5,0.45 1.5,1 0,0.55 1.65555,1 3.679,1 4.77381,0 14.22597,2.96568 22.6655,7.11145 2.11448,1.0387 4.47698,1.88855 5.25,1.88855 0.77303,0 1.4055,0.45 1.4055,1 0,0.55 0.69382,1 1.54181,1 0.848,0 2.50785,0.9 3.68856,2 1.18072,1.1 2.65268,2 3.27104,2 0.61835,0 3.4563,1.125 6.30653,2.5 3.96246,1.91155 6.77869,2.5 11.96465,2.5 7.39956,0 10.70529,1.49653 12.24368,5.5428 1.04632,2.75203 10.56036,9.4473 13.47038,9.47944 1.10734,0.0122 3.13835,0.90222 4.51335,1.97776 1.375,1.07554 2.95425,1.96553 3.50945,1.97776 0.5552,0.0122 1.57152,0.92224 2.25848,2.02224 0.68696,1.1 1.69774,2 2.24619,2 1.53605,0 12.98588,11.1616 12.98588,12.65898 0,0.72824 0.9,1.88613 2,2.57309 1.1,0.68696 2,2.00304 2,2.92462 0,2.57174 7.27677,9.84331 9.85034,9.84331 1.22874,0 2.77758,0.44322 3.44187,0.98493 5.20715,4.2463 7.57628,6.01507 8.05669,6.01507 0.30811,0 1.62694,1.0125 2.93074,2.25 4.19307,3.97985 6.70908,5.75 8.17277,5.75 0.78626,0 1.70767,0.45 2.04759,1 0.33992,0.55 1.68992,1 3,1 1.31008,0 2.66008,-0.45 3,-1 0.33992,-0.55 1.71648,-1 3.05902,-1 1.34254,0 2.44098,-0.45 2.44098,-1 0,-0.55 0.57247,-1 1.27216,-1 0.69968,0 2.83718,-1.28092 4.75,-2.84649 12.42988,-10.17342 21.2232,-11.16426 32.42368,-3.65351 3.69087,2.475 7.12546,4.5 7.63242,4.5 0.50696,0 0.92174,0.45 0.92174,1 0,0.55 0.675,1 1.5,1 0.825,0 1.5,0.45 1.5,1 0,0.55 0.90611,1 2.01357,1 1.10746,0 2.79496,0.41421 3.75,0.92048 0.95504,0.50626 4.88643,2.1844 8.73643,3.72921 3.85,1.5448 7.15,3.15558 7.33333,3.57952 0.18334,0.42393 1.19584,0.77079 2.25,0.77079 1.05417,0 1.91667,0.45 1.91667,1 0,0.55 0.80066,1 1.77924,1 0.97858,0 2.42792,0.9 3.22076,2 0.9795,1.35899 2.58869,2 5.02076,2 1.96858,0 4.00674,0.42255 4.52924,0.93901 2.59512,2.56508 39.37414,2.19663 50.95,-0.51042 2.77681,-0.64936 7.63499,-4.97402 10,-8.9018 0.96161,-1.59702 2.99528,-2.89668 8.62115,-5.50949 1.7079,-0.7932 4.66943,-0.99025 8.5,-0.56555 3.23337,0.35849 10.6022,0.88464 16.37519,1.16923 10.96286,0.54043 12.3441,1.08027 19.44222,7.59876 2.00062,1.83725 6.56144,2.46063 6.56144,0.89684 0,-0.48589 1.0125,-1.11927 2.25,-1.40752 1.2375,-0.28825 5.4,-1.72465 9.25,-3.19201 3.85,-1.46735 8.0554,-2.91963 9.34533,-3.22728 C 508.0926,213.75379 520,202.41572 520,200.81188 c 0,-1.66058 6.71989,-9.61364 10.87995,-12.87652 11.88931,-9.32522 15.78521,-12.98492 17.61764,-16.5495 2.93994,-5.71901 3.88657,-6.38586 9.06496,-6.38586 9.76437,0 18.31428,-6.02626 10.18745,-7.18045 -3.1246,-0.44376 -3.69719,-5.24226 -0.80993,-6.78748 1.13296,-0.60634 2.05993,-1.97623 2.05993,-3.0442 0,-3.60961 4.6541,-5.51715 12.71035,-5.20949 4.50767,0.17214 7.28965,-0.11409 7.28965,-0.75 0,-0.56561 0.675,-1.02838 1.5,-1.02838 0.825,0 1.5,-0.675 1.5,-1.5 0,-1.07959 1.10455,-1.5 3.94098,-1.5 2.16754,0 4.2191,-0.45 4.55902,-1 0.33992,-0.55 1.51029,-1 2.60083,-1 1.09054,0 2.94883,-0.9 4.12954,-2 1.18072,-1.1 3.22903,-2 4.55181,-2 1.47184,0 2.58706,-0.69599 2.87412,-1.79368 0.25798,-0.98652 2.63472,-2.82186 5.28165,-4.07854 4.47929,-2.12663 7.06205,-5.25657 7.06205,-8.5582 0,-0.73498 0.9,-1.57167 2,-1.85933 1.58911,-0.41556 2,-1.36401 2,-4.61663 0,-3.2199 0.37351,-4.10041 1.75,-4.12542 2.39507,-0.0435 5.25,-2.35411 5.25,-4.24899 0,-2.12403 4.96476,-3.079001 11.65899,-2.24261 4.16242,0.52006 6.02113,0.30779 7.86101,-0.897749 C 658.8453,98.710483 660.79732,98 661.85783,98 c 1.0605,0 2.18721,-0.675 2.5038,-1.5 0.31658,-0.825 1.24236,-1.5 2.0573,-1.5 0.81493,0 1.84155,-0.587179 2.28138,-1.304842 1.62423,-2.650226 8.31535,-5.788951 13.48075,-6.32366 2.92541,-0.302831 7.34394,-1.167271 9.81894,-1.920977 2.83702,-0.863952 5.79343,-1.092881 8,-0.619478 l 3.5,0.750896 0.25405,119.091341 0.25405,119.09134 -2.25405,0.60403 c -1.23973,0.33222 -159.64155,0.61019 -352.00405,0.6177 L 0,325 Z"
       id="path1" />
  </g>
</svg>
