<?xml version="1.0" encoding="UTF-8" standalone="no"?>
<!-- Created with Inkscape (http://www.inkscape.org/) -->

<svg
   width="1024mm"
   height="1024mm"
   viewBox="0 0 1024 1024"
   version="1.1"
   id="svg1"
   xmlns:inkscape="http://www.inkscape.org/namespaces/inkscape"
   xmlns:sodipodi="http://sodipodi.sourceforge.net/DTD/sodipodi-0.dtd"
   xmlns="http://www.w3.org/2000/svg"
   xmlns:svg="http://www.w3.org/2000/svg">
  <sodipodi:namedview
     id="namedview1"
     pagecolor="#505050"
     bordercolor="#ffffff"
     borderopacity="1"
     inkscape:showpageshadow="0"
     inkscape:pageopacity="0"
     inkscape:pagecheckerboard="1"
     inkscape:deskcolor="#505050"
     inkscape:document-units="mm" />
  <defs
     id="defs1" />
  <path
     id="Icon_menu"
     style="color:#000000;fill:#000000;stroke-width:0.953445;stroke-linecap:round;stroke-linejoin:round;stroke-miterlimit:1;-inkscape-stroke:none"
     d="M 511.99974,0 C 376.21834,0 245.97304,53.949141 149.96109,149.96109 53.949141,245.97304 0,376.21834 0,511.99974 0,647.78113 53.949141,778.02692 149.96109,874.03887 245.97304,970.05081 376.21834,1024 511.99974,1024 647.78113,1024 778.02692,970.05081 874.03887,874.03887 970.05081,778.02692 1024,647.78113 1024,511.99974 1024,376.21834 970.05081,245.97304 874.03887,149.96109 778.02692,53.949141 647.78113,0 511.99974,0 Z m 0,47.672294 c 123.15627,0 241.245,48.913647 328.32964,135.998276 87.08463,87.08464 135.9983,205.17289 135.9983,328.32917 0,123.15627 -48.91367,241.245 -135.9983,328.32964 -87.08464,87.08463 -205.17337,135.9983 -328.32964,135.9983 -123.15628,0 -241.24453,-48.91367 -328.32917,-135.9983 C 96.585941,753.24474 47.672294,635.15601 47.672294,511.99974 47.672294,388.84346 96.585941,270.75521 183.67057,183.67057 270.75521,96.585941 388.84346,47.672294 511.99974,47.672294 Z M 239.07835,308.59823 c -23.93177,0 -43.19851,19.87879 -43.19851,44.5712 0,24.69241 19.26674,44.57121 43.19851,44.57121 H 784.9216 c 23.93179,0 43.19852,-19.87881 43.19852,-44.57121 0,-24.69241 -19.26673,-44.5712 -43.19852,-44.5712 z m 0,158.8303 c -23.93177,0 -43.19851,19.87879 -43.19851,44.57121 0,24.6924 19.26674,44.57169 43.19851,44.57169 H 784.9216 c 23.93179,0 43.19852,-19.87928 43.19852,-44.57169 0,-24.69243 -19.26673,-44.57121 -43.19852,-44.57121 z m 0,158.83079 c -23.93177,0 -43.19851,19.8788 -43.19851,44.5712 0,24.69241 19.26674,44.5712 43.19851,44.5712 H 784.9216 c 23.93179,0 43.19852,-19.87879 43.19852,-44.5712 0,-24.6924 -19.26673,-44.5712 -43.19852,-44.5712 z"
     inkscape:label="Icon_menu">
    <desc
       id="desc4">FelipePaterni</desc>
    <title
       id="title4">Icon_menu</title>
  </path>
</svg>
