<svg width="623" height="351" viewBox="0 0 623 351" fill="none" xmlns="http://www.w3.org/2000/svg">
<path d="M0 175.053V0.0529785H622.222V350.053H0V175.053ZM295.436 332.767C295.746 334.118 297.036 332.052 298.268 331.416C302.978 328.983 304.843 323.705 309.167 320.886C312.208 318.619 314.327 315.428 316.978 312.77C319.788 309.953 322.419 306.331 325.614 303.959C326.062 303.627 326.527 303.312 326.995 303C331.71 299.856 337.457 294.085 340.585 289.359C343.259 285.319 348.13 288.012 351.787 291.19C353.589 292.756 355.532 294.181 357.138 295.943C358.062 296.956 358.404 298.718 359.732 299.064C360.775 299.337 362.059 298.1 363.471 296.47C368.125 291.1 375.516 290.167 382.046 287.365C382.403 287.212 382.76 287.058 383.117 286.903C392.445 282.866 402.791 279.685 412.534 276.789C416.736 275.54 421.163 274.326 426.07 271.916C427.456 271.235 428.711 268.82 429.683 267.62C432.917 263.628 442.001 277.48 445.923 280.798C446.198 281.03 446.468 281.267 446.728 281.509C449.452 284.05 453.076 287.399 455.513 290.217C456.443 291.292 457.186 292.554 458.003 293.743C460.532 297.427 463.713 303.02 468.173 303.296C468.893 303.34 469.659 303.191 470.451 302.92C475.886 301.057 479.724 293.42 484.213 289.834C488.305 286.566 492.718 293.304 496.13 297.277C497.366 298.717 498.524 300.234 499.845 301.589C501.354 303.138 503.448 304.041 504.888 305.655C507.103 308.138 509.145 312.073 511.181 312.994C512.581 313.628 513.697 311.932 514.81 310.872C515.691 310.033 516.705 309.328 517.726 308.63C522.736 305.206 528.661 299.176 532.054 294.146C532.107 294.068 532.16 293.99 532.214 293.912C534.753 290.213 538.544 282.945 542.263 285.454C546.854 288.551 550.294 286.223 551.308 280.779C552.002 277.056 553.027 273.47 554.151 269.754C554.696 267.954 554.978 266.084 555.383 264.248C556.225 260.428 558.057 256.594 558.54 252.792C559.1 248.385 559.554 243.033 558.499 238.716C557.02 232.667 556.431 223.284 557.406 217.132C557.443 216.898 557.476 216.664 557.505 216.429C558.056 211.937 556.188 206.72 556.902 202.251C557.193 200.431 558.201 199.787 563.686 200.139C573.81 201.482 559.533 187.047 551.732 180.456C551.372 180.151 550.996 179.861 550.602 179.59C544.843 176.599 552.51 172 556.618 169.139C557.826 168.297 558.735 167.126 559.576 165.917C560.993 163.882 562.077 162.782 561.716 161.359C560.35 155.982 557.045 150.051 555.667 144.678C554.368 139.614 553.924 132.483 554.915 127.35C555.042 126.69 555.18 126.032 555.287 125.375C556.011 120.948 554.774 115.838 554.521 111.359C554.377 108.791 553.888 106.262 553.649 103.726C553.509 102.237 553.316 100.746 553.278 99.2517C553.194 95.9077 554.152 92.3718 554.118 88.9057C554.072 84.2263 552.771 78.8078 557.451 78.8209C563.487 78.8378 568.181 73.8221 564.762 68.8476C563.535 67.0625 561.9 65.4877 559.676 63.4408C554.591 58.761 551.035 57.469 546.713 51.9056C545.787 50.7144 544.892 49.9019 544.017 49.4078C538.512 46.2981 531.421 50.2812 526.969 45.7921C524.162 42.9622 521.468 39.291 518.266 36.917C517.549 36.3851 516.787 35.8982 516.041 35.3949C511.387 32.254 507.997 22.957 503.442 26.24C500.881 28.0856 498.553 31.3312 496.499 33.7281C494.219 36.3892 491.137 38.2492 488.766 40.8196C487.788 41.8797 486.884 43.0114 485.929 44.0917C485.858 44.1723 485.786 44.2536 485.714 44.3357C479.778 51.0849 473.515 39.5841 465.435 35.6487C462.81 34.3704 459.244 36.2321 457.27 38.3824C456.231 39.5131 455.252 40.7028 454.232 41.8519C450.658 45.8775 446.689 50.5925 442.21 53.5775C441.297 54.1858 440.393 54.8029 439.608 55.5394C436.714 58.2552 433.649 63.6055 431.162 66.6974C428.405 70.1229 423.934 71.7665 420.343 69.2305C418.337 67.8141 416.176 65.7694 413.981 64.1438C409.725 60.9916 403.761 60.7174 398.698 59.1607C390.927 56.771 382.981 54.7505 376.167 50.9716C371.619 49.2053 366.476 49.1644 362.013 47.1511C356.323 44.5842 349.955 42.8501 345.371 47.0869C342.946 49.3284 340.867 54.2547 337.713 53.2756C337.387 53.1741 337.048 53.0172 336.705 52.8141C331.25 49.5885 325.481 42.0831 321.814 36.9139C319.298 33.367 315.349 30.295 312.174 27.3236C309.639 24.9513 306.631 23.0523 304.629 20.1464C304.232 19.6194 303.808 19.1189 303.365 18.6377C296.965 11.6878 288.026 10.1372 280.324 15.6093C275.3 19.2633 270.219 24.5678 271.143 34.8192C271.325 36.8472 271.512 39.0434 270.248 40.6403C269.549 41.5236 268.671 42.2271 267.737 42.8759C262.532 46.4945 256.125 52.9903 252.454 58.1587C249.941 61.6968 246 64.7607 242.833 67.7277C240.296 70.1046 237.282 72.0049 235.277 74.9149C231.481 80.0084 225.2 80.8631 219.634 83.925C217.56 85.0658 215.55 85.5265 213.687 84.4166C211.71 83.2384 210.395 81.1402 208.397 79.998C207.175 79.2997 206.093 78.8374 204.917 78.3904C201.198 76.9764 198.74 73.3783 195.555 70.994C190.275 67.0429 183.555 60.3633 179.634 55.0614C179.372 54.7068 179.099 54.3638 178.806 54.0397C176.517 51.5052 173.11 50.0303 171.285 47.1443C170.911 46.5533 170.533 45.98 170.138 45.4479C166.707 40.8169 160.823 50.2113 156.378 46.5417C155.071 45.4622 153.735 43.8942 152.541 42.5348C151.354 41.1827 150.186 39.8037 148.928 38.5179C146.552 36.0905 143.706 34.1337 141.468 31.5691C139.503 29.3188 136.931 27.3413 134.861 25.1879C130.932 21.1006 125.6 23.9357 120.886 27.0848C120.516 27.332 120.15 27.5832 119.796 27.8462C116.548 30.2569 113.721 33.9741 110.899 36.8721C110.54 37.2415 110.192 37.6228 109.852 38.0113C106.151 42.2344 100.619 42.2121 96.8648 38.0363C96.6386 37.7846 96.41 37.5353 96.178 37.2894C93.047 33.9702 89.6154 27.7526 85.4085 29.5196C81.8769 31.0031 77.7372 36.3475 76.4812 37.6464C74.8865 39.0283 73.2235 40.6855 71.7721 42.5636C65.7336 50.3768 64.0183 62.9999 62.6413 72.7781C61.6797 79.6064 59.6789 86.8942 57.5833 93.4636C56.0222 98.3574 53.7536 103.152 53.5529 108.501C53.4236 109.44 53.2312 110.421 53.0236 111.43C51.176 120.409 52.6879 130.919 53.6287 140.038C53.8114 141.808 54.0415 143.531 54.0411 145.311C54.0406 148.193 53.3364 151.208 53.2133 154.191C52.9861 159.697 53.7532 164.905 48.2558 165.288C46.772 165.391 45.3238 165.488 44.2162 165.756C40.4825 166.661 46.0312 170.289 48.405 173.309C52.8977 179.026 65.7404 184.752 61.4017 190.586C59.9733 192.507 57.0441 194.627 55.2551 196.217C52.4347 198.725 48.9062 200.828 49.009 203.606C49.2178 209.243 54.0102 215.741 55.3535 221.219C56.5161 225.961 56.9345 232.573 56.0779 237.38C55.924 238.243 55.7327 239.105 55.5924 239.963C54.8684 244.39 56.1057 249.5 56.358 253.979C56.4735 256.029 56.8084 258.055 57.0602 260.079C57.3688 262.56 56.5583 265.068 56.7496 267.561C56.8854 269.33 57.5952 271 58.489 272.674C61.4315 278.184 67.8032 283.635 71.3223 288.796C73.9549 292.657 78.1726 296.03 81.6416 299.161C84.0897 301.371 86.8964 303.222 88.796 305.98C90.7868 309.432 93.3957 309.657 95.8278 308.433C102.171 305.24 104.526 293.529 111.548 294.594C115.155 295.141 117.263 299.942 119.674 302.68C121.569 304.831 123.341 307.103 125.637 308.853C127.463 310.244 129.098 311.421 130.355 313.341C133.791 318.588 142.141 314.722 145.737 309.584C148.274 305.959 152.311 302.794 155.555 299.786C157.229 298.232 159.101 296.876 160.749 295.296C162.401 293.712 162.725 290.299 165.006 290.095C167.145 289.904 169.89 295.008 172.145 296.396C174.438 297.808 175.773 293.482 177.74 291.642C179.496 290.001 181.415 288.523 183.116 286.826C185.933 284.016 189.555 281.385 191.927 278.19C192.019 278.065 192.11 277.939 192.2 277.813C195.867 272.644 202.32 266.23 207.49 262.564C211.038 260.047 214.111 256.097 217.083 252.921C217.322 252.666 217.556 252.406 217.787 252.142C221.487 247.919 227.019 247.942 230.773 252.118C231.195 252.587 231.625 253.048 232.07 253.494C234.88 256.311 237.511 259.933 240.706 262.305C240.831 262.397 240.957 262.488 241.083 262.578C246.252 266.245 252.666 272.699 256.333 277.868C258.849 281.416 262.799 284.489 265.975 287.461C266.81 288.243 267.696 288.972 268.581 289.704C272.037 292.562 276.886 295.103 278.016 299.443C279.006 303.248 278.568 308.572 279.308 312.881C279.868 316.134 283.271 317.703 285.46 320.173C287.429 322.395 288.572 325.442 291.201 327.004C293.185 328.182 294.919 330.518 295.436 332.767Z" fill="#3A221C"/>
</svg>
