<?xml version="1.0" encoding="UTF-8" standalone="no"?>
<!-- Created with Inkscape (http://www.inkscape.org/) -->

<svg
   width="36.885963mm"
   height="24.085823mm"
   viewBox="0 0 36.885963 24.085823"
   version="1.1"
   id="svg1"
   xml:space="preserve"
   inkscape:version="1.3.2 (091e20e, 2023-11-25, custom)"
   sodipodi:docname="LogoNome.svg"
   xmlns:inkscape="http://www.inkscape.org/namespaces/inkscape"
   xmlns:sodipodi="http://sodipodi.sourceforge.net/DTD/sodipodi-0.dtd"
   xmlns="http://www.w3.org/2000/svg"
   xmlns:svg="http://www.w3.org/2000/svg"><sodipodi:namedview
     id="namedview1"
     pagecolor="#505050"
     bordercolor="#ffffff"
     borderopacity="1"
     inkscape:showpageshadow="0"
     inkscape:pageopacity="0"
     inkscape:pagecheckerboard="1"
     inkscape:deskcolor="#505050"
     inkscape:document-units="mm"
     inkscape:zoom="1.4142136"
     inkscape:cx="39.597979"
     inkscape:cy="104.29825"
     inkscape:window-width="1366"
     inkscape:window-height="705"
     inkscape:window-x="-8"
     inkscape:window-y="-8"
     inkscape:window-maximized="1"
     inkscape:current-layer="svg1" /><defs
     id="defs1"><inkscape:path-effect
       effect="bend_path"
       id="path-effect2"
       is_visible="true"
       lpeversion="1"
       bendpath="m 74.614207,71.59703 0.75861,-0.818555 0.537435,-0.553971 0.504362,-0.810287 1.223698,-1.322916 0.07441,-0.56224 0.744141,-0.752409 0.09922,-0.611849 0.479558,-0.909505 -0.239779,-0.578776 0.239779,-0.363802 0.03307,-0.51263 0.206705,-0.372071 0.0083,-0.529166 0.305925,-0.388607 0.37207,-0.587044 0.65319,-0.570508 0.09095,-0.380339 0.380338,-0.14056 0.520899,-0.520898 0.396875,-0.231511 0.802018,-0.429947 0.520898,-0.04961 0.363803,-0.272851 h 0.405143 l 0.421679,0.148828 0.47129,-1.480013 0.611849,-0.264584 0.248046,1.5875 0.124024,0.297657 0.570508,0.281119 0.644922,0.09095 0.214973,0.173633 0.214974,0.124023 0.347266,0.115755 0.429948,0.33073 0.272852,0.454752 0.03307,0.454753 0.239779,0.206705 0.06615,0.239779 0.01654,0.413412 0.239779,0.165364 0.181901,0.124024 v 0.380338 l -0.132292,0.165365 -0.08268,0.14056 0.07441,0.07441 h 0.231511 l -0.04961,0.421679 -0.198437,0.248047 0.03307,0.239779 0.124023,0.305924 0.02479,0.28112 -0.223243,0.338998 -0.0083,0.09922 0.206706,0.330729 0.06615,0.14056 -0.148828,0.223243 -0.02479,0.471289 0.388607,0.504362 -0.03307,0.248046 -0.132291,0.214974 -0.02479,0.148829 0.23151,0.206705 0.04134,0.256315 -0.08268,0.338998 -0.05788,0.181901 0.537435,0.735872 v 0.487826 l 0.148828,0.272851 -0.04961,0.661459 0.256315,0.520898 0.0083,0.752409 -0.05788,0.181901 0.0083,0.826823 0.157096,0.429948 0.438216,0.65319 0.01654,0.297656 -0.454753,0.735873 -0.02479,0.413411 0.14056,0.206706 -0.165365,0.214974 -0.413411,0.463021 -0.07441,0.595312 -0.214974,0.322461 -0.529167,0.405143 -0.322461,0.471289 -0.37207,0.115756 -0.223243,0.140559 -0.256315,0.454753 -0.239778,0.239779 -0.438216,0.214974 -0.471289,0.0083 -0.198438,0.07441 -0.702799,0.702799 -0.181901,0.115755 -0.264584,0.04134 -0.93431,0.04961 -0.223242,0.0083 -0.37207,0.09095 -1.339453,0.56224 -0.396875,0.09095 -0.926042,0.06614 h -0.686263 l -0.446484,-0.206705 -0.661459,-0.157097 -0.314192,-0.06615 -0.496094,-0.05788 -0.380339,-0.115755 -0.454752,0.02479 -0.487826,-0.198437 -0.28112,-0.520899 -0.272851,-0.355534 -0.256315,-0.09922 -0.289388,-0.115716 -0.314193,-0.07441 -0.992188,-1.21543 0.0083,-0.256315 -0.02479,-0.338997 -0.264583,-0.355534 -0.239779,-0.264583 -0.05788,-0.479558 -0.23151,-0.330729 -0.08268,-0.727604 -0.09922,-0.338997 -0.08268,-0.214974 0.124023,-0.272852 0.02479,-0.248047 -0.115756,-0.297656 -0.04134,-0.314193 0.148828,-0.438216 0.305925,-0.727604 z"
       prop_scale="1"
       scale_y_rel="false"
       vertical="false"
       hide_knot="false" /><inkscape:path-effect
       effect="bend_path"
       id="path-effect1"
       is_visible="true"
       lpeversion="1"
       bendpath="m 107.7264,60.988892 -0.66146,10.186458 -7.540625,-8.069792 3.293215,-1.083076 0.53788,2.03459 z"
       prop_scale="1"
       scale_y_rel="false"
       vertical="false"
       hide_knot="false" /></defs><path
     id="path60"
     style="display:inline;fill:#eef1c6;stroke:#000000;stroke-width:0.264583;stroke-linecap:round;stroke-linejoin:round;stroke-miterlimit:1;stroke-opacity:0;fill-opacity:1"
     inkscape:label="Titulo"
     d="M 85.617219 57.66382 C 85.548871 57.67599 85.442383 57.728161 85.276672 57.812649 C 84.914123 57.997485 84.811471 58.115482 84.809517 58.351117 C 84.805117 58.882538 84.546188 59.414906 84.332027 59.333486 C 84.037356 59.221451 83.789082 59.23382 83.522774 59.37276 C 83.397857 59.43793 83.178059 59.516919 83.034431 59.54846 C 82.890805 59.58001 82.557101 59.736105 82.292875 59.895209 C 82.028652 60.054319 81.764376 60.184597 81.705314 60.184597 C 81.646254 60.184597 81.508177 60.280656 81.398872 60.398537 C 81.289567 60.516417 81.069181 60.678694 80.90898 60.758722 C 80.748783 60.838752 80.605358 60.9803 80.590136 61.073431 C 80.574916 61.166561 80.365044 61.435596 80.124015 61.671328 C 79.603275 62.180631 79.220194 62.785732 79.220194 63.099148 C 79.220194 63.223478 79.159694 63.442079 79.085835 63.584906 C 79.011975 63.727728 78.971993 63.923042 78.996952 64.018471 C 79.023112 64.118511 78.972241 64.289942 78.877062 64.423615 C 78.679103 64.701622 78.668614 64.86846 78.839339 65.010142 C 79.012972 65.154242 79.003296 65.212992 78.712215 65.785805 C 78.572515 66.060716 78.457967 66.36228 78.457967 66.456049 C 78.457967 66.550259 78.249686 66.833288 77.992362 67.088568 C 77.66615 67.412179 77.526757 67.616217 77.526757 67.77018 C 77.526757 68.031848 77.277243 68.401849 76.824991 68.810427 C 76.643521 68.974375 76.305548 69.404355 76.073616 69.765924 C 75.837742 70.133624 75.429268 70.615947 75.147058 70.860431 C 74.525358 71.399016 74.462798 71.512782 74.434956 72.158026 C 74.422066 72.456655 74.338047 72.837377 74.234452 73.065464 C 73.965037 73.658641 74.06727 75.685058 74.402917 76.403762 C 74.491337 76.593089 74.563631 76.825611 74.563631 76.920526 C 74.563631 77.015446 74.65704 77.194031 74.77137 77.317401 C 74.8857 77.440771 75.004922 77.684498 75.035953 77.85897 C 75.090163 78.163785 75.320246 78.628847 75.5491 78.895599 C 76.005041 79.427049 76.17926 79.56842 76.538187 79.698134 C 76.836928 79.8061 77.01163 79.939986 77.18776 80.196295 C 77.613149 80.815343 77.737507 80.899793 78.310689 80.959039 C 79.314472 81.062792 79.856961 81.164205 80.320902 81.33421 C 80.978886 81.575323 82.336259 81.513116 83.072672 81.20812 C 83.98789 80.829071 84.561842 80.673748 85.048779 80.673269 C 85.757591 80.67257 86.107837 80.543031 86.542228 80.120848 C 86.82785 79.843253 86.999192 79.742576 87.185599 79.742576 C 87.636262 79.742576 88.257502 79.348803 88.476993 78.924021 C 88.564723 78.754243 88.719941 78.621268 88.900223 78.56177 C 89.056806 78.51009 89.232432 78.378524 89.290897 78.269281 C 89.349367 78.160037 89.559213 77.935433 89.757018 77.770087 C 90.026616 77.544736 90.143958 77.366916 90.22624 77.060569 C 90.28661 76.835801 90.445612 76.534976 90.579707 76.391876 C 90.78646 76.17124 90.821375 76.068142 90.809151 75.714398 C 90.798441 75.404585 90.85419 75.183895 91.025675 74.85657 C 91.282529 74.366288 91.270586 74.235667 90.917154 73.701601 C 90.720022 73.403713 90.695486 73.270353 90.652571 72.260862 C 90.626571 71.649134 90.572911 71.097324 90.533198 71.034581 C 90.49348 70.971841 90.448158 70.76235 90.432946 70.568976 C 90.407236 70.242069 90.352356 69.871254 90.267065 69.450181 C 90.247625 69.354181 90.13441 69.163782 90.015401 69.026951 C 89.836945 68.821766 89.808072 68.723172 89.850553 68.464195 C 89.886813 68.243155 89.858255 68.076079 89.754435 67.900405 C 89.626978 67.684633 89.622231 67.615064 89.717228 67.385708 C 89.815238 67.149084 89.80882 67.100001 89.6578 66.933022 C 89.434898 66.686553 89.373788 66.408729 89.477449 66.111367 C 89.542369 65.925134 89.530663 65.822598 89.427323 65.664883 C 89.306593 65.480626 89.306153 65.429059 89.421122 65.153803 C 89.522431 64.911336 89.528705 64.803232 89.451094 64.632904 C 89.375094 64.466108 89.378564 64.340011 89.467114 64.071698 C 89.552374 63.813344 89.557537 63.688124 89.487267 63.575604 C 89.435329 63.492444 89.413888 63.271886 89.439208 63.083128 C 89.477848 62.795053 89.456498 62.725796 89.305366 62.644912 C 89.187529 62.581842 89.126049 62.466948 89.126049 62.309532 C 89.126049 62.177751 89.054989 61.978753 88.967919 61.867698 C 88.880859 61.756643 88.782119 61.53252 88.748295 61.369537 C 88.609478 60.700678 87.719205 60.01474 86.809395 59.875572 C 86.358525 59.806602 86.017062 59.633161 85.961901 59.44459 C 85.867041 59.120311 85.739693 58.273396 85.739693 57.967678 C 85.739693 57.781053 85.734097 57.685644 85.673547 57.665371 C 85.658407 57.660271 85.640009 57.65982 85.617219 57.66382 z M 85.461673 57.898431 C 85.539573 57.898431 85.569725 57.947342 85.539705 58.025556 C 85.469735 58.20789 85.748474 59.463868 85.905057 59.67145 C 85.994827 59.790464 86.234798 59.887393 86.656433 59.975307 C 86.997119 60.046347 87.320948 60.143184 87.375768 60.190281 C 87.430588 60.237381 87.646157 60.360215 87.855326 60.463133 C 88.28163 60.672885 88.61807 61.109678 88.61807 61.45377 C 88.61807 61.579361 88.694431 61.750858 88.787569 61.835142 C 88.888947 61.926892 88.957067 62.095888 88.957067 62.256305 C 88.957067 62.436583 89.026007 62.584643 89.168424 62.708474 C 89.409678 62.918246 89.419719 62.968926 89.277978 63.280015 C 89.190338 63.472367 89.197104 63.520733 89.326554 63.615395 C 89.469057 63.7196 89.46997 63.739117 89.336372 63.943024 C 89.212476 64.132112 89.207628 64.211795 89.300199 64.572959 C 89.390929 64.926982 89.387254 65.013764 89.275394 65.17344 C 89.151721 65.350007 89.141437 65.322354 89.083675 64.656159 C 88.801199 61.398285 87.599576 59.597295 86.297798 60.480703 C 85.914588 60.740756 85.930834 60.742036 85.972753 60.456415 C 86.069313 59.7985 84.27923 59.381448 83.204447 59.811493 C 83.018841 59.885753 82.817773 59.929288 82.757962 59.908128 C 82.698154 59.886978 82.820742 59.818827 83.030297 59.756716 C 83.239847 59.694606 83.497797 59.588844 83.603389 59.522105 C 83.740651 59.435345 83.915549 59.41689 84.217822 59.456993 C 84.696676 59.520513 84.724728 59.486302 84.911319 58.617767 C 85.002909 58.191443 85.227362 57.898431 85.461673 57.898431 z M 85.781034 60.946307 C 85.791924 60.946307 85.759977 61.098972 85.710237 61.285305 C 85.598815 61.702749 85.710125 62.171835 86.110213 62.970473 C 86.752804 64.253176 86.899565 64.937023 86.723095 65.826113 C 86.650395 66.192409 86.579351 66.663529 86.564965 66.873077 C 86.538805 67.254077 86.538765 67.2542 86.426989 67.000202 C 86.342289 66.807737 86.328162 66.448362 86.369112 65.518121 C 86.43004 64.133757 86.312831 63.44199 85.953116 63.062974 C 85.842627 62.946556 85.603713 62.603945 85.421883 62.301264 C 85.130359 61.815983 85.044621 61.735774 84.696345 61.623785 C 84.207135 61.466478 84.199043 61.400707 84.660172 61.326129 C 84.858075 61.294119 85.186532 61.195523 85.39036 61.107021 C 85.594183 61.018521 85.770145 60.946307 85.781034 60.946307 z M 80.989595 60.954059 C 81.012935 60.949559 81.033826 60.953336 81.048506 60.968012 C 81.069816 60.989322 81.029042 61.054831 80.958072 61.113739 C 80.877602 61.180519 80.828881 61.186932 80.828881 61.130792 C 80.828881 61.054052 80.919571 60.967602 80.989595 60.954059 z M 98.171492 61.236212 C 96.306343 61.250392 94.608421 62.377855 95.211466 63.698077 C 95.717937 64.806889 96.836476 65.134546 98.012329 64.518182 C 99.291747 63.847532 99.941352 64.286299 99.367801 65.433889 C 98.957712 66.254426 98.205303 66.467144 96.661507 66.20025 C 92.948786 65.558396 91.194194 66.319787 91.206542 68.566514 C 91.216242 70.337431 93.393481 71.269178 93.899401 69.718899 C 94.239114 68.677943 95.666696 67.296307 96.402608 67.296307 C 96.95507 67.296307 96.850533 69.370836 96.193835 71.444891 C 94.848228 75.69471 95.305287 78.550139 97.171036 77.552529 C 97.906776 77.159128 98.02583 75.972928 97.520886 74.070571 C 96.700755 70.980749 97.421357 67.336505 98.925968 66.962994 C 101.88911 66.227417 102.57703 62.850978 100.01324 61.627403 C 99.433446 61.350685 98.793206 61.231485 98.171492 61.236212 z M 87.05124 61.285305 C 88.020891 61.285305 89.060131 66.766151 88.094588 66.787811 C 88.062798 66.788524 88.017797 66.721505 87.994335 66.640017 C 87.970865 66.558527 87.954375 66.01597 87.957645 65.433889 C 87.966245 63.910409 87.795733 63.314759 87.072428 62.340021 C 86.517644 61.592392 86.51136 61.285305 87.05124 61.285305 z M 83.195662 61.454287 C 83.590922 61.454287 83.652895 61.585458 83.294881 61.664093 C 82.647975 61.806178 82.445508 62.456975 82.590531 63.929071 C 82.767719 65.727712 82.729801 66.921094 82.473225 67.602749 C 82.351585 67.925916 82.268139 68.300113 82.285123 68.445591 C 82.315313 68.70422 82.313062 68.705712 82.097538 68.582017 C 81.661816 68.331944 81.270661 68.504219 81.211287 68.972174 C 81.105672 69.804558 80.999174 69.909158 81.042305 69.138572 C 81.078905 68.484647 81.064595 68.378998 80.918798 68.233201 C 80.704956 68.019359 80.192053 67.919901 80.023762 68.059568 C 79.915639 68.149308 79.897672 68.115228 79.897672 67.820823 C 79.897672 67.000109 78.759061 66.864366 78.063159 67.602232 C 77.805127 67.87583 77.781005 67.88539 77.781005 67.713336 C 77.781005 67.598259 77.945156 67.367979 78.204235 67.119574 C 78.488437 66.847083 78.627465 66.644513 78.627465 66.504108 C 78.627465 66.389082 78.747887 66.060636 78.894632 65.77392 C 79.152789 65.269522 79.157045 65.243639 79.027958 64.972935 C 78.930878 64.769349 78.919847 64.667643 78.98765 64.599831 C 79.07325 64.514231 79.149445 64.166117 79.277555 63.275364 C 79.304345 63.089097 79.416609 62.828736 79.527152 62.697105 C 79.637695 62.565474 79.728173 62.423252 79.728173 62.381879 C 79.728173 62.282819 80.234196 61.708535 80.321419 61.708535 C 80.358679 61.708535 80.278098 61.913734 80.142101 62.164838 C 79.620351 63.128154 79.437659 63.965861 79.67753 64.293907 C 79.900531 64.598872 80.195644 64.315709 80.680053 63.333759 C 81.572772 61.524123 81.990009 62.948217 81.24591 65.264907 C 80.735608 66.853674 80.882459 68.312783 81.552868 68.312783 C 82.317896 68.312783 82.652903 66.653275 82.308894 64.565725 C 82.024502 62.839943 82.419255 61.454287 83.195662 61.454287 z M 102.68646 61.691998 C 102.52687 61.693898 102.355 61.741619 102.1821 61.849612 C 101.89619 62.028203 101.79396 62.36284 101.9077 62.744647 C 102.07452 63.304624 102.71288 63.486314 103.16809 63.103282 C 103.78867 62.581103 103.44238 61.813205 102.84149 61.704917 C 102.79139 61.695919 102.73965 61.691378 102.68646 61.691998 z M 84.055041 62.743614 C 84.488409 62.735214 84.708531 63.455041 84.389387 63.903233 C 84.176691 64.201939 83.811267 64.25529 83.577551 64.021572 C 83.293124 63.737145 83.614052 62.797074 84.012666 62.746714 C 84.027076 62.744914 84.041061 62.743914 84.055041 62.743614 z M 104.35251 63.714097 C 104.27971 63.716597 104.20754 63.721797 104.1365 63.730117 C 103.92336 63.755007 103.71906 63.805367 103.52724 63.877395 C 103.14359 64.021456 102.81039 64.25241 102.55882 64.539887 C 101.92993 65.258577 101.81125 66.331262 102.69111 67.288039 C 104.26718 69.001955 104.62082 70.334952 103.99698 72.207119 C 103.88637 72.539069 103.80522 72.824889 103.75461 73.082001 C 103.62807 73.724782 103.69202 74.188251 103.95977 74.745465 C 104.01327 74.856908 104.07481 74.972125 104.14477 75.093248 C 104.36219 75.469568 104.51193 75.772617 104.60469 76.054429 C 104.66659 76.242303 104.70299 76.420858 104.71735 76.6053 C 104.73895 76.881962 104.71035 77.172 104.64345 77.527724 C 104.61575 77.67389 104.59539 77.80854 104.58299 77.932868 C 104.57069 78.057194 104.5665 78.171106 104.5711 78.276516 C 104.5896 78.698156 104.75077 78.980213 105.1075 79.215993 C 105.1967 79.274943 105.29791 79.330861 105.41239 79.385492 C 105.52687 79.440122 105.65439 79.493487 105.79583 79.546723 C 105.85313 79.568291 105.92516 79.586039 106.00874 79.599949 C 106.5938 79.697279 107.73917 79.61132 108.27785 79.407713 C 108.64764 79.267942 108.96454 79.079508 109.22663 78.850641 L 109.22715 78.850641 C 110.01364 78.163691 110.30703 77.111901 110.05966 75.914903 C 109.94971 75.382904 109.73277 74.822136 109.40491 74.251955 C 109.13438 73.781439 108.96071 73.463977 108.84784 73.114557 C 108.84484 73.105157 108.84154 73.095625 108.83854 73.086135 C 108.65467 72.496951 108.64103 71.804239 108.63545 70.132827 C 108.62305 66.555513 108.1195 65.431267 105.95293 64.145079 C 105.41213 63.824023 104.8623 63.696546 104.35251 63.714097 z M 84.396622 64.92746 C 84.897391 64.92276 85.056862 65.654672 84.852925 67.020355 C 84.767975 67.589257 85.102822 68.363154 85.497847 68.512254 C 85.768012 68.614232 85.792366 68.67193 85.625488 68.810427 C 85.538398 68.882707 85.475031 68.864983 85.358321 68.736013 C 85.166813 68.524399 84.545141 68.501065 84.380602 68.699323 C 84.280994 68.819343 84.263804 68.819343 84.196634 68.699323 C 84.114374 68.552337 83.747151 68.519498 83.665401 68.65178 C 83.636621 68.69835 83.57123 68.736013 83.52019 68.736013 C 83.46917 68.736013 83.488825 68.668314 83.564115 68.585118 C 83.923965 68.18749 84.000431 67.812326 84.002331 66.426076 C 84.004231 65.027012 84.029193 64.93086 84.396622 64.92746 z M 89.222167 65.576516 C 89.227267 65.577516 89.2325 65.582432 89.23767 65.589952 C 89.27906 65.650372 89.321938 65.916885 89.329138 66.335643 C 89.335738 66.717028 89.380277 66.902619 89.497086 67.031724 C 89.710572 67.267684 89.544916 67.757099 89.280045 67.673029 C 89.079975 67.609529 88.734873 67.824559 88.660445 68.059052 C 88.627155 68.163938 88.382698 68.342767 88.045495 68.508637 C 87.450967 68.801078 87.257468 69.087972 87.464135 69.370599 C 87.567779 69.512336 87.641858 69.522966 88.306978 69.494106 C 88.775408 69.473776 88.962186 69.592568 88.817024 69.818117 C 88.718334 69.971467 88.644457 69.977242 88.019657 69.879096 C 87.433763 69.787056 87.125833 70.212766 87.488423 70.613418 C 87.698976 70.846074 87.576552 70.799632 87.353548 70.562258 C 87.170592 70.36751 87.165909 70.333838 87.268281 69.934389 C 87.363181 69.564091 87.359585 69.485226 87.235725 69.296185 C 87.158045 69.177626 87.094132 68.942666 87.094132 68.773737 C 87.094132 68.466592 87.094309 68.466717 86.628527 68.495717 C 86.117779 68.527517 86.080252 68.498617 86.332421 68.270408 C 86.425551 68.186128 86.504421 68.018663 86.508121 67.897821 C 86.512021 67.769001 86.534248 67.729829 86.561348 67.804287 C 87.156764 69.440617 89.144671 68.11918 89.154471 66.080361 C 89.156171 65.725662 89.186786 65.569424 89.222167 65.576516 z M 105.8103 66.934056 C 106.04152 66.949656 106.37912 67.212297 106.67898 67.761912 C 106.85575 68.085912 106.86397 68.199536 106.86657 70.386558 C 106.86732 70.978203 106.87062 71.444486 106.88052 71.82523 C 106.91112 72.967457 107.00498 73.339461 107.2867 74.013727 C 107.88062 75.435152 107.53227 76.434595 106.75185 75.548 C 106.18416 74.903075 106.13995 74.483956 106.23353 70.640806 C 106.24253 70.285045 106.24498 70.000806 106.23818 69.76024 C 106.21658 69.038543 106.10071 68.709273 105.75139 68.01616 C 105.4317 67.381746 105.49216 67.004254 105.71832 66.942324 C 105.74662 66.934624 105.7772 66.931856 105.8103 66.934056 z M 100.4065 67.166083 C 99.591105 67.164283 98.798597 67.601342 98.292932 68.412002 C 98.220692 68.527811 98.154252 68.651136 98.094494 68.782005 C 97.941206 69.117707 97.826319 69.419654 97.749812 69.727684 C 97.673302 70.035713 97.635272 70.349941 97.635607 70.709536 C 97.636123 71.248928 97.722937 71.890574 97.896573 72.768842 C 97.954443 73.061597 98.022014 73.38084 98.099145 73.731057 C 98.436973 75.265035 98.428803 76.00646 98.060388 77.196478 C 97.8396 77.909661 97.789117 78.49947 97.885204 78.927639 C 98.029336 79.569893 98.503664 79.84813 99.229825 79.633022 C 99.310505 79.609122 99.394182 79.579375 99.480973 79.543105 C 99.919029 79.360073 100.21145 78.949927 100.35275 78.397439 C 100.37635 78.305359 100.39543 78.20973 100.41063 78.110118 C 100.45603 77.811283 100.46354 77.480304 100.43234 77.127749 C 100.40114 76.775193 100.33116 76.400871 100.22201 76.015672 C 100.14921 75.758874 100.05913 75.497308 99.951228 75.233807 C 99.897278 75.102059 99.838851 74.969703 99.776045 74.837449 C 99.647264 74.566267 99.553341 74.292749 99.488724 74.024062 C 99.485824 74.012122 99.482739 74.000325 99.479939 73.988405 C 99.419609 73.727123 99.388067 73.471144 99.381237 73.226695 C 99.380893 73.214415 99.380389 73.202225 99.380204 73.190005 C 99.373604 72.819735 99.424594 72.47774 99.520764 72.187999 C 99.523664 72.179199 99.526549 72.170364 99.529549 72.161644 C 99.664321 71.771271 99.882097 71.478694 100.15225 71.346189 C 100.49355 71.179046 100.91814 71.265831 101.36303 71.730145 C 102.00986 72.405216 102.18724 73.850913 101.83328 75.566087 C 101.69905 76.21649 101.61022 76.778526 101.56818 77.25849 C 101.49458 78.098427 101.56419 78.687412 101.78161 79.059931 C 101.90597 79.272797 102.07861 79.414927 102.30096 79.492979 C 102.35656 79.512489 102.41537 79.527898 102.47717 79.539488 C 103.38472 79.709747 103.94488 78.866631 103.9577 77.658982 C 103.9637 77.110052 103.85633 76.485986 103.61715 75.847207 C 103.42749 75.340668 103.30222 74.976528 103.2239 74.634361 C 103.1717 74.406252 103.14018 74.188021 103.12468 73.943447 C 103.10138 73.576587 103.1136 73.150915 103.1438 72.545599 C 103.1774 71.872659 103.1849 71.293021 103.1624 70.789118 C 103.0949 69.277407 102.75594 68.445784 102.0312 67.809454 C 101.90746 67.700808 101.77898 67.606316 101.64725 67.525751 L 101.64673 67.525751 C 101.44909 67.404923 101.24401 67.315017 101.03592 67.255483 L 101.0354 67.255483 C 100.89674 67.215843 100.75679 67.189688 100.61682 67.176418 L 100.6163 67.176418 C 100.5462 67.169818 100.47639 67.166233 100.4065 67.166083 z M 89.620593 68.023395 C 89.628593 68.023222 89.639382 68.030309 89.652632 68.043549 C 89.697822 68.088699 89.720045 68.196371 89.701725 68.282811 C 89.677055 68.399206 89.655689 68.377328 89.619559 68.200128 C 89.595929 68.084255 89.596483 68.023914 89.620593 68.023395 z M 78.84864 68.079205 C 78.89186 68.072905 78.91725 68.128495 78.968013 68.239919 C 79.097501 68.524109 79.44482 68.696058 79.610868 68.558246 C 79.706518 68.478866 79.728195 68.506047 79.72714 68.703973 C 79.72514 69.073921 79.594247 69.227565 79.523018 68.943752 C 79.466038 68.716739 79.456146 68.713631 78.97008 68.764435 C 78.358161 68.828395 78.260618 68.695354 78.622298 68.290562 C 78.744422 68.153879 78.805417 68.08552 78.84864 68.079205 z M 95.67242 68.405284 C 95.531606 68.403584 95.382441 68.455314 95.248673 68.580984 C 94.992898 68.82127 95.000387 69.114036 95.268827 69.382485 C 95.519362 69.633019 95.843515 69.606558 96.089965 69.315306 C 96.443936 68.896987 96.094864 68.410378 95.67242 68.405284 z M 100.32175 68.467295 C 100.38115 68.467471 100.43984 68.473095 100.49796 68.481765 C 100.51236 68.483865 100.52666 68.486816 100.54086 68.489516 C 100.65585 68.511146 100.766 68.549907 100.86693 68.607339 C 100.87913 68.614339 100.89111 68.621553 100.90311 68.629043 C 100.95271 68.660253 101.0009 68.694712 101.0447 68.735496 C 101.83188 69.468915 100.65278 70.611145 99.628251 70.107505 C 99.238668 69.915992 99.046513 69.453622 99.214322 69.111184 C 99.37578 68.781714 99.703044 68.566387 100.0551 68.494167 C 100.1431 68.476107 100.23284 68.467025 100.32175 68.467295 z M 77.429606 68.656948 C 77.492294 68.673878 77.527094 68.745318 77.527274 68.876573 C 77.528474 69.793113 78.420226 70.329688 79.102888 69.824835 C 79.280097 69.693782 79.259856 69.730586 79.029508 69.957644 C 78.700484 70.281966 78.655687 70.418725 78.793347 70.675946 C 78.862727 70.805588 78.844415 70.82163 78.666223 70.787567 C 78.482246 70.752397 78.458483 70.777447 78.458483 71.005125 C 78.458483 71.165625 78.353344 71.400425 78.179431 71.62886 C 77.77463 72.160566 77.764127 72.186415 77.867305 72.379201 C 78.112289 72.836963 79.039502 73.055288 79.338016 72.725433 C 79.604041 72.431482 79.555065 72.100931 79.220194 71.9291 C 78.923861 71.777044 78.924049 71.776956 79.2512 71.801459 C 79.588147 71.826699 79.591397 71.823848 79.812923 71.347223 C 79.926538 71.102772 79.873521 70.936912 79.681148 70.936912 C 79.503427 70.936912 79.527996 70.867532 79.826875 70.527118 C 80.094682 70.222103 80.094302 70.222332 80.035648 70.58913 C 79.947708 71.139057 80.426992 71.446432 80.754984 71.0506 C 80.859729 70.924188 80.875364 70.934939 80.914147 71.15602 C 81.000807 71.650009 81.759362 71.733332 82.268587 71.304848 C 82.86935 70.79934 82.757831 69.802171 82.07325 69.557151 C 82.00593 69.533061 82.03641 69.450785 82.16265 69.313239 C 82.267425 69.199075 82.352819 69.037559 82.352819 68.954087 C 82.352819 68.850481 82.395239 68.818752 82.486661 68.853835 C 82.560321 68.882105 82.703504 68.906159 82.804471 68.907579 C 82.984548 68.910079 82.984533 68.912177 82.818424 69.006797 C 82.334777 69.282377 82.269921 69.511389 82.607067 69.751455 C 82.913775 69.96985 82.933783 70.24903 82.691817 70.936912 C 82.341273 71.933447 82.562306 72.214285 83.495902 71.958038 C 84.307055 71.735401 84.455455 71.125538 83.686588 71.174107 C 83.284421 71.199517 83.284029 71.199396 83.284029 70.772064 C 83.284029 70.16719 83.792534 69.88838 83.892777 70.438235 C 83.958437 70.798387 84.164427 71.153375 84.34908 71.224233 C 84.43795 71.258333 84.468545 71.39248 84.4576 71.701723 C 84.43955 72.21177 84.593748 72.427133 84.918554 72.345612 C 85.212426 72.271852 85.246983 72.106329 85.046195 71.731696 C 84.872832 71.408237 84.873001 71.408249 85.061698 71.278493 C 85.165481 71.207123 85.341098 71.064891 85.452372 70.962234 C 85.654697 70.775583 85.654943 70.775432 85.654943 70.977737 C 85.654943 71.283589 85.796497 71.59339 85.981538 71.692422 C 86.209084 71.814199 86.522591 71.557731 86.522591 71.249555 C 86.522591 71.12431 86.556265 71.021661 86.597005 71.021661 C 86.637755 71.021661 86.670902 71.061338 86.670902 71.110028 C 86.670902 71.158708 86.764342 71.292356 86.878641 71.406651 C 87.267076 71.795086 87.910126 71.597113 87.838789 71.111062 C 87.806219 70.889129 87.80671 70.888957 88.324548 70.921926 C 88.949706 70.961736 89.641242 70.664069 89.873807 70.2553 C 90.103068 69.852335 90.12235 69.880044 90.256213 70.809788 C 90.276323 70.949483 90.335213 71.274601 90.387471 71.532225 C 90.450131 71.841156 90.456388 72.141197 90.405558 72.413308 C 90.320518 72.868487 90.462158 73.513174 90.732153 73.900556 C 90.966502 74.236785 91.015067 74.567504 90.863928 74.798175 C 90.695599 75.05508 90.565755 75.058223 90.565755 74.804893 C 90.565755 74.696929 90.510834 74.420616 90.443798 74.190977 C 90.376758 73.961334 90.282776 73.430299 90.235025 73.011204 C 90.079842 71.649197 89.865305 71.322019 89.06042 71.218549 C 87.77685 71.053544 87.218247 72.438324 87.85946 74.196661 C 88.332491 75.493823 88.731426 77.607491 88.313179 76.600649 C 87.960869 75.752544 87.42548 76.011445 87.601594 76.944814 C 87.663544 77.273132 87.688281 77.568163 87.656371 77.600071 C 87.522263 77.734181 87.353487 77.365307 87.222289 76.651809 C 87.04086 75.665129 86.899522 75.362384 86.218216 74.500519 C 85.638637 73.767341 85.505092 73.383457 85.792403 73.273204 C 86.006842 73.190914 86.163895 73.378198 86.511222 74.133099 C 87.132266 75.482904 87.731783 74.73325 87.184049 73.291807 C 86.989419 72.779612 86.571889 72.333886 86.198579 72.240192 C 85.571624 72.082834 84.739601 72.464516 84.713915 72.921287 C 84.704415 73.09104 84.702816 73.091511 84.665856 72.926972 C 84.477006 72.086068 84.347524 71.989939 83.708809 72.21487 C 82.868979 72.510628 82.234928 72.396877 81.289318 71.780788 C 80.55362 71.301465 80.086365 71.344808 79.848063 71.915147 C 79.537281 72.65896 79.745382 72.968569 80.559647 72.972447 C 81.664863 72.977747 81.755365 73.566085 80.91053 75.256545 C 80.105118 76.868121 78.178949 77.520966 77.692639 76.346918 C 77.412841 75.671413 77.822391 75.406863 78.591808 75.766591 C 79.529555 76.205025 80.060973 76.100284 80.414436 75.40744 C 80.703062 74.841694 80.459416 73.7005 80.02893 73.601866 C 79.93347 73.579996 79.606449 73.505996 79.302359 73.437535 C 78.99827 73.369075 78.335854 73.159554 77.830098 72.97193 C 75.618971 72.151669 74.663056 73.798255 75.587341 76.83526 C 76.17169 78.755297 77.787195 80.247887 79.544205 80.491368 C 82.378345 80.88412 83.833105 78.764156 82.869584 75.644635 C 82.637643 74.893688 82.569996 74.226706 82.689233 73.865416 C 82.805966 73.511702 82.839904 73.505948 83.445776 73.736224 C 84.02 73.954476 84.326432 73.862575 84.484989 73.424099 C 84.589409 73.135319 84.589684 73.134904 84.697896 73.665428 C 84.757416 73.957209 84.883137 74.291843 84.977465 74.408535 C 85.716934 75.323327 86.226868 76.571712 86.29108 77.624359 C 86.32477 78.176571 86.325009 78.176286 86.251289 77.668284 C 86.025655 76.113366 84.782217 74.152665 83.94187 74.026646 C 83.247347 73.922495 82.797338 74.323256 83.062853 74.809544 C 83.27478 75.197677 83.366067 75.421969 83.409602 75.662205 C 83.432372 75.78787 83.489402 76.023529 83.536726 76.186204 C 83.762975 76.963996 83.601056 77.73609 82.909374 79.174135 C 82.482192 80.062292 82.502944 80.51698 82.979654 80.719778 C 83.242149 80.831442 83.241797 80.831682 82.860799 80.996763 C 82.357102 81.215008 81.064395 81.297556 80.689872 81.135256 C 80.313143 80.971999 78.800357 80.674302 78.347379 80.674302 C 78.011358 80.674302 77.938675 80.638571 77.725711 80.368895 C 77.28726 79.813686 76.824558 79.404096 76.635339 79.404096 C 76.227538 79.404096 75.38239 78.412081 75.28555 77.819696 C 75.25346 77.623379 75.116019 77.323013 74.980143 77.152037 C 74.844272 76.981065 74.733129 76.759212 74.733129 76.65956 C 74.733129 76.55991 74.679899 76.402967 74.615307 76.310744 C 74.338647 75.915758 74.241928 73.673193 74.477848 73.123342 C 74.590145 72.861616 74.64838 72.53935 74.64838 72.17663 C 74.64838 71.575793 74.694472 71.50387 75.553751 70.768447 C 75.74418 70.605463 76.085179 70.180031 76.311328 69.823285 C 76.804337 69.045582 77.241549 68.606686 77.429606 68.657465 L 77.429606 68.656948 z M 89.251106 68.713792 C 89.592624 68.718692 89.978856 68.969459 89.69449 69.028501 C 89.68469 69.030501 89.486006 69.021298 89.253173 69.008348 C 88.452145 68.963558 88.409699 68.785646 89.18341 68.716376 C 89.20557 68.714376 89.228336 68.713492 89.251106 68.713792 z M 80.404618 68.820245 C 80.482028 68.820245 80.402518 69.320153 80.316768 69.373183 C 80.278788 69.396653 80.226039 69.379786 80.198946 69.335976 C 80.144516 69.247906 80.315042 68.820245 80.404618 68.820245 z M 81.760607 68.904995 C 81.762107 68.904922 81.763658 68.904995 81.765258 68.904995 C 81.814578 68.904995 81.831245 68.943174 81.802465 68.989744 C 81.773685 69.036314 81.733595 69.074494 81.713065 69.074494 C 81.692535 69.074494 81.675341 69.036314 81.675341 68.989744 C 81.675341 68.944634 81.713387 68.907275 81.760607 68.904995 z M 84.129455 69.019716 C 84.130555 69.019572 84.131105 69.01982 84.131005 69.020233 C 84.130549 69.099833 83.799042 69.851386 83.796142 69.77936 C 83.793942 69.72485 83.677975 69.655526 83.538277 69.624848 C 83.291959 69.570748 83.17372 69.328225 83.393583 69.328225 C 83.453583 69.328225 83.643983 69.256145 83.816813 69.168028 C 83.978838 69.085418 84.113318 69.021882 84.129455 69.019716 z M 89.896545 69.245542 C 89.902845 69.245056 89.926379 69.280563 89.972509 69.352513 C 90.025899 69.435763 90.050703 69.550311 90.027803 69.606761 C 89.997753 69.680821 89.984544 69.681818 89.979744 69.610378 C 89.976044 69.555978 89.95125 69.441947 89.92445 69.356647 C 89.90124 69.282937 89.890245 69.246028 89.896545 69.245542 z M 86.422855 69.261562 C 86.426155 69.261453 86.429274 69.262442 86.432674 69.263629 C 86.611352 69.323189 86.706008 69.753551 86.570133 69.889431 C 86.503743 69.955861 86.422966 69.984109 86.390816 69.951959 C 86.289139 69.850275 86.321505 69.265446 86.422855 69.262079 L 86.422855 69.261562 z M 84.843623 69.331842 C 84.848523 69.332044 84.852819 69.333143 84.857059 69.334943 C 84.879639 69.344643 84.892716 69.377413 84.892716 69.437779 C 84.892716 69.505809 84.945776 69.605731 85.010538 69.659471 C 85.110622 69.742531 85.107093 69.816877 84.985733 70.156081 C 84.819163 70.621655 84.604691 70.716407 84.45605 70.390175 C 84.37317 70.208268 84.383979 70.101913 84.518579 69.777293 C 84.631388 69.505214 84.770849 69.328802 84.843623 69.331842 z M 85.552624 69.438296 C 85.555824 69.438315 85.559042 69.439496 85.562442 69.441396 C 85.589762 69.456706 85.623893 69.533447 85.68905 69.685309 C 85.908548 70.196919 85.830888 70.353423 85.549523 69.966429 C 85.440983 69.817138 85.422267 69.711394 85.47821 69.56697 C 85.51033 69.48405 85.529954 69.438161 85.552624 69.438296 z M 77.090608 69.674457 C 76.940868 69.677957 76.889652 69.758858 76.718538 70.059446 C 76.589525 70.286078 76.351891 70.611362 76.190405 70.7824 C 75.55456 71.455854 76.497522 72.107515 77.620808 71.77097 C 78.755573 71.430989 78.498098 69.854713 77.281294 69.69151 C 77.201404 69.68079 77.140521 69.673277 77.090608 69.674457 z M 81.935274 70.344183 C 82.113919 70.344183 81.975873 70.724574 81.787479 70.751394 C 81.627565 70.774164 81.610495 70.749294 81.660355 70.562775 C 81.692005 70.444434 81.746355 70.346619 81.781278 70.345734 C 81.816208 70.344798 81.885464 70.344183 81.935274 70.344183 z M 77.480248 70.648558 C 77.566808 70.617158 77.623096 70.723778 77.560347 70.887303 C 77.507767 71.024314 77.273026 71.07835 77.273026 70.953449 C 77.273026 70.915779 77.324486 70.81446 77.387231 70.728656 C 77.419511 70.684516 77.451398 70.659028 77.480248 70.648558 z M 109.89687 71.24542 C 109.79016 71.24652 109.67658 71.269631 109.55891 71.318801 C 109.22949 71.45644 109.10778 71.669976 109.10778 72.10945 C 109.10778 72.721798 109.74957 73.064972 110.29375 72.74352 C 111.06114 72.290216 110.64386 71.237849 109.89687 71.24542 z M 88.910042 72.291868 C 89.310967 72.291868 89.527591 72.894187 89.225268 73.167784 C 89.024987 73.349036 88.992394 73.345015 88.834594 73.119725 C 88.61186 72.801723 88.658477 72.291868 88.910042 72.291868 z M 89.306917 74.02923 C 89.326327 74.02173 89.362106 74.071081 89.416471 74.196661 C 89.476941 74.336361 89.617425 74.736246 89.728596 75.085496 C 89.930728 75.720491 89.930379 75.720798 90.245878 75.711298 C 90.708514 75.697398 90.74956 75.928789 90.360599 76.35932 C 90.149145 76.593374 90.057775 76.774724 90.057775 76.959284 C 90.057775 77.268929 89.219677 78.151313 88.693517 78.395888 C 88.523092 78.475108 88.279021 78.70057 88.141096 78.905935 C 87.893448 79.274675 87.744748 79.356935 87.163895 79.445953 C 86.957099 79.477643 86.711148 79.620982 86.43164 79.872284 C 86.015819 80.246137 85.757536 80.389287 86.016678 80.102244 C 86.212321 79.885535 86.353212 79.23221 86.319502 78.698195 C 86.286692 78.178409 86.290204 78.175696 86.487967 78.571588 C 87.018273 79.63317 88.426746 78.773547 88.454256 77.371661 C 88.461956 76.979007 88.474571 76.943393 88.534871 77.144285 C 88.640573 77.496435 88.779704 77.62591 89.052152 77.62591 C 89.789886 77.62591 89.999537 76.477398 89.515173 75.092214 C 89.337601 74.584365 89.248701 74.05172 89.306917 74.02923 z M 84.151676 75.059141 C 84.207346 75.056041 84.311487 75.140261 84.455533 75.322174 C 84.793064 75.74837 84.899405 76.026492 84.795564 76.212042 C 84.691885 76.397258 84.563204 76.395296 84.495324 76.207391 C 84.465874 76.125903 84.351973 75.852384 84.24211 75.599677 C 84.115887 75.309366 84.080581 75.128011 84.121187 75.075161 C 84.128787 75.065261 84.138826 75.059861 84.151676 75.059141 z M 94.044095 76.609434 C 93.915365 76.609434 93.929879 76.800277 94.073034 76.995457 C 94.177953 77.138498 94.176388 77.17895 94.062699 77.304999 C 93.976899 77.400119 93.947059 77.545308 93.975366 77.728229 C 93.999066 77.881408 93.979664 78.204084 93.932474 78.445498 C 93.735811 79.450465 94.577553 80.000705 95.560799 79.509515 C 96.635841 78.972473 95.866654 77.053091 94.595483 77.100877 C 94.369934 77.109377 94.310264 77.070145 94.231164 76.860582 C 94.179104 76.722658 94.094707 76.609434 94.044095 76.609434 z M 84.803316 78.115285 C 84.807016 78.115366 84.810518 78.116386 84.814168 78.118386 C 84.873298 78.149796 84.938343 78.422324 85.031209 78.947793 C 85.143812 79.584931 85.225984 79.847992 85.469425 80.355975 C 85.486165 80.390905 85.333193 80.419537 85.129911 80.419537 C 84.926633 80.419537 84.567685 80.469518 84.332027 80.530642 C 83.903559 80.641787 83.903668 80.642023 84.096382 80.358042 C 84.336078 80.004833 84.523169 79.439814 84.6333 78.736436 C 84.69782 78.324331 84.74853 78.114072 84.803316 78.115285 z M 96.944693 78.40674 C 96.920773 78.406737 96.896516 78.408642 96.872346 78.412942 C 96.870646 78.413249 96.868979 78.413679 96.867179 78.413975 C 96.792209 78.428305 96.717014 78.464335 96.647037 78.527663 C 96.471206 78.686788 96.441987 79.065716 96.59381 79.217544 C 96.737661 79.361393 97.132961 79.343467 97.290409 79.186021 C 97.598051 78.878377 97.324708 78.443001 96.987068 78.408807 C 96.972998 78.407407 96.958953 78.40674 96.944693 78.40674 z "
     transform="translate(-73.946615,-57.528944)" /></svg>
