<?xml version="1.0" encoding="UTF-8" standalone="no"?>
<!-- Created with Inkscape (http://www.inkscape.org/) -->

<svg
   width="17.388149mm"
   height="24.085823mm"
   viewBox="0 0 17.388149 24.085823"
   version="1.1"
   id="svg1"
   xml:space="preserve"
   inkscape:version="1.3.2 (091e20e, 2023-11-25, custom)"
   sodipodi:docname="Logo.svg"
   xmlns:inkscape="http://www.inkscape.org/namespaces/inkscape"
   xmlns:sodipodi="http://sodipodi.sourceforge.net/DTD/sodipodi-0.dtd"
   xmlns="http://www.w3.org/2000/svg"
   xmlns:svg="http://www.w3.org/2000/svg"><sodipodi:namedview
     id="namedview1"
     pagecolor="#505050"
     bordercolor="#ffffff"
     borderopacity="1"
     inkscape:showpageshadow="0"
     inkscape:pageopacity="0"
     inkscape:pagecheckerboard="1"
     inkscape:deskcolor="#505050"
     inkscape:document-units="mm"
     inkscape:zoom="1.4142136"
     inkscape:cx="38.537319"
     inkscape:cy="104.29825"
     inkscape:window-width="1366"
     inkscape:window-height="705"
     inkscape:window-x="-8"
     inkscape:window-y="-8"
     inkscape:window-maximized="1"
     inkscape:current-layer="svg1"
     showgrid="false" /><defs
     id="defs1" /><path
     id="Logo"
     style="display:inline;fill:#000000;fill-opacity:1;stroke:#000000;stroke-width:0.264583;stroke-linecap:round;stroke-linejoin:round;stroke-miterlimit:1;stroke-opacity:0"
     d="m 85.617153,57.66403 c -0.06835,0.01217 -0.174836,0.06434 -0.340547,0.148828 -0.362549,0.184838 -0.465201,0.302834 -0.467155,0.538469 -0.0044,0.531421 -0.263328,1.063789 -0.477491,0.982369 -0.294671,-0.112035 -0.542943,-0.09967 -0.809253,0.03927 -0.124917,0.06517 -0.344714,0.144158 -0.488342,0.175699 -0.143628,0.03155 -0.477329,0.187645 -0.741557,0.346749 -0.264223,0.15911 -0.528497,0.289388 -0.587561,0.289388 -0.05906,0 -0.197136,0.09606 -0.306441,0.213941 -0.109305,0.11788 -0.329692,0.280157 -0.489893,0.360185 -0.160197,0.08003 -0.303621,0.221576 -0.318843,0.314709 -0.01522,0.09313 -0.225091,0.362164 -0.466122,0.597896 -0.52074,0.509305 -0.90382,1.114404 -0.90382,1.42782 0,0.12433 -0.0605,0.342932 -0.134359,0.485759 -0.07386,0.142822 -0.113839,0.338136 -0.08888,0.433565 0.02616,0.10004 -0.02471,0.27147 -0.119889,0.405143 -0.197961,0.278009 -0.208445,0.444846 -0.03772,0.586528 0.173635,0.1441 0.163959,0.202848 -0.127124,0.775663 -0.1397,0.274911 -0.254248,0.576474 -0.254248,0.670243 0,0.09421 -0.20828,0.37724 -0.465604,0.63252 -0.326212,0.323611 -0.465605,0.527647 -0.465605,0.681612 0,0.261668 -0.249514,0.631668 -0.701766,1.040246 -0.18147,0.163948 -0.519443,0.593927 -0.751375,0.955498 -0.235874,0.3677 -0.644347,0.850023 -0.926559,1.094507 -0.6217,0.538587 -0.684259,0.652349 -0.712101,1.297595 -0.01289,0.298629 -0.09691,0.679349 -0.200505,0.907438 -0.269415,0.593177 -0.167181,2.619591 0.168466,3.338297 0.08842,0.189327 0.160713,0.42185 0.160713,0.516765 0,0.09492 0.09341,0.273505 0.20774,0.396875 0.11433,0.12337 0.233552,0.367097 0.264583,0.541569 0.05421,0.304815 0.284293,0.769875 0.513147,1.036629 0.455941,0.53145 0.63016,0.672819 0.989087,0.802535 0.298741,0.107966 0.473443,0.24185 0.649573,0.498161 0.425391,0.619048 0.549746,0.703498 1.122928,0.762744 1.003785,0.103753 1.546273,0.205166 2.010214,0.375171 0.657986,0.241113 2.015355,0.178907 2.75177,-0.126091 0.91522,-0.379049 1.489169,-0.534372 1.976106,-0.534851 0.708814,-6.99e-4 1.059058,-0.130236 1.493449,-0.552421 0.285624,-0.277595 0.456965,-0.378271 0.643372,-0.378271 0.450663,0 1.071903,-0.393773 1.291394,-0.818555 0.08773,-0.16978 0.242948,-0.302754 0.42323,-0.362252 0.156583,-0.05168 0.332209,-0.183245 0.390674,-0.292488 0.05847,-0.109244 0.268314,-0.333849 0.466121,-0.499195 0.269598,-0.225351 0.386938,-0.40317 0.469222,-0.709517 0.06037,-0.22477 0.219372,-0.525593 0.353467,-0.668693 0.206753,-0.220638 0.241667,-0.323734 0.229443,-0.677478 -0.01071,-0.309815 0.04504,-0.530502 0.216525,-0.857829 0.256854,-0.490282 0.244911,-0.620902 -0.108521,-1.154968 -0.197134,-0.29789 -0.221668,-0.431246 -0.264583,-1.440739 -0.026,-0.61173 -0.07966,-1.163539 -0.119373,-1.226282 -0.03972,-0.06274 -0.08504,-0.272231 -0.100252,-0.465605 -0.02571,-0.326907 -0.08059,-0.697721 -0.165881,-1.118794 -0.01944,-0.096 -0.132656,-0.286399 -0.251665,-0.42323 -0.178456,-0.205185 -0.207328,-0.30378 -0.164847,-0.562757 0.03626,-0.22104 0.0077,-0.388116 -0.09612,-0.56379 -0.127457,-0.215772 -0.132207,-0.285339 -0.03721,-0.514697 0.09801,-0.236624 0.09159,-0.285706 -0.05943,-0.452685 -0.222902,-0.246469 -0.284011,-0.524294 -0.18035,-0.821656 0.06492,-0.186233 0.05321,-0.288767 -0.05013,-0.446484 -0.12073,-0.184257 -0.121169,-0.235822 -0.0062,-0.51108 0.101309,-0.242467 0.107581,-0.35057 0.02997,-0.520898 -0.076,-0.166796 -0.07253,-0.292893 0.01602,-0.561206 0.08526,-0.258354 0.09042,-0.383574 0.02015,-0.496094 -0.05194,-0.08316 -0.07338,-0.303719 -0.04806,-0.492477 0.03864,-0.288075 0.01729,-0.357332 -0.133842,-0.438216 -0.117839,-0.06307 -0.179317,-0.177964 -0.179317,-0.33538 0,-0.131781 -0.07106,-0.330778 -0.15813,-0.441833 -0.08706,-0.111055 -0.185799,-0.335178 -0.219625,-0.498161 -0.138817,-0.668861 -1.029087,-1.354798 -1.938899,-1.493966 -0.45087,-0.06897 -0.792333,-0.24241 -0.847494,-0.430981 -0.09486,-0.324281 -0.222209,-1.171195 -0.222209,-1.476913 0,-0.186625 -0.0056,-0.282034 -0.06615,-0.302307 -0.01514,-0.0051 -0.03354,-0.0056 -0.05633,-0.0016 z m -0.155546,0.234611 c 0.0779,0 0.10805,0.04891 0.07803,0.127124 -0.06997,0.182336 0.208769,1.438312 0.365352,1.645894 0.08977,0.119014 0.32974,0.215944 0.751375,0.303858 0.340688,0.07104 0.664514,0.167877 0.719336,0.214974 0.05482,0.0471 0.270388,0.169933 0.479557,0.272851 0.426306,0.209752 0.762745,0.646546 0.762745,0.990638 0,0.125591 0.07636,0.297088 0.169498,0.381372 0.10138,0.09175 0.169499,0.260746 0.169499,0.421163 0,0.180278 0.06894,0.328337 0.211357,0.452168 0.241254,0.209772 0.251295,0.260453 0.109554,0.571542 -0.08764,0.192352 -0.08087,0.240718 0.04858,0.33538 0.142503,0.104205 0.143398,0.123721 0.0098,0.327628 -0.123896,0.189088 -0.128741,0.26877 -0.03617,0.629936 0.09073,0.354023 0.08705,0.440804 -0.02481,0.60048 -0.123673,0.176569 -0.133956,0.148916 -0.19172,-0.517281 -0.282476,-3.25788 -1.484096,-5.058866 -2.785876,-4.175456 -0.38321,0.260053 -0.366964,0.261331 -0.325045,-0.02429 0.09656,-0.657917 -1.693521,-1.074966 -2.768306,-0.644921 -0.185606,0.07426 -0.386674,0.11779 -0.446485,0.09663 -0.05981,-0.02115 0.06278,-0.0893 0.272335,-0.151411 0.20955,-0.06211 0.4675,-0.167872 0.573092,-0.234611 0.137262,-0.08676 0.312159,-0.105213 0.614432,-0.06511 0.478856,0.06352 0.506905,0.02931 0.693498,-0.839225 0.09159,-0.426326 0.316041,-0.719336 0.550354,-0.719336 z m 0.31936,3.047876 c 0.01089,0 -0.02106,0.152664 -0.0708,0.338997 -0.111422,0.417446 -1.13e-4,0.886529 0.399975,1.685169 0.642593,1.282705 0.789353,1.966547 0.612883,2.855639 -0.0727,0.366296 -0.143744,0.837415 -0.15813,1.046965 -0.02616,0.381 -0.0262,0.381124 -0.137976,0.127124 -0.0847,-0.192465 -0.09883,-0.551839 -0.05788,-1.48208 0.06093,-1.384368 -0.05628,-2.076131 -0.415995,-2.455147 -0.110489,-0.116418 -0.349402,-0.459028 -0.531234,-0.761711 -0.291524,-0.485281 -0.377261,-0.565489 -0.725537,-0.677478 -0.489212,-0.157309 -0.497299,-0.223078 -0.03617,-0.297656 0.197903,-0.03201 0.52636,-0.130606 0.730188,-0.219108 0.203823,-0.0885 0.379784,-0.160714 0.390673,-0.160714 z m -4.791438,0.0078 c 0.02334,-0.0045 0.04423,-7.26e-4 0.05891,0.01395 0.02131,0.02131 -0.01946,0.08682 -0.09043,0.145728 -0.08047,0.06678 -0.129191,0.07319 -0.129191,0.01705 0,-0.07674 0.09069,-0.163191 0.160714,-0.176734 z m 6.061645,0.33073 c 0.969653,0 2.008892,5.480846 1.043347,5.502506 -0.03179,7.13e-4 -0.07679,-0.06579 -0.100252,-0.147278 -0.02347,-0.08149 -0.03996,-0.624045 -0.03669,-1.206128 0.0086,-1.523482 -0.16191,-2.119128 -0.885217,-3.093868 -0.554784,-0.747631 -0.561072,-1.055232 -0.02119,-1.055232 z m -3.855578,0.169498 c 0.395262,0 0.457236,0.130655 0.09922,0.20929 -0.646906,0.142085 -0.849372,0.792878 -0.704349,2.264978 0.177188,1.798645 0.13927,2.992539 -0.117306,3.674194 -0.12164,0.323169 -0.205086,0.696848 -0.188102,0.842326 0.03019,0.258629 0.02794,0.260121 -0.187586,0.136426 -0.435722,-0.250073 -0.826876,-0.0778 -0.88625,0.390157 -0.105615,0.832386 -0.212113,0.936984 -0.168982,0.166398 0.0366,-0.653927 0.02229,-0.759574 -0.123507,-0.905371 -0.213842,-0.213842 -0.726745,-0.313302 -0.895036,-0.173633 -0.108125,0.08974 -0.12609,0.05566 -0.12609,-0.238745 0,-0.820716 -1.13861,-0.955943 -1.834514,-0.218075 -0.258032,0.273598 -0.282153,0.282642 -0.282153,0.110588 0,-0.115077 0.164149,-0.345357 0.42323,-0.593762 0.284202,-0.272491 0.42323,-0.474545 0.42323,-0.61495 0,-0.115026 0.12042,-0.443986 0.267167,-0.730704 0.258157,-0.504398 0.262414,-0.530281 0.133325,-0.800985 -0.09708,-0.203586 -0.108113,-0.305292 -0.04031,-0.373104 0.0856,-0.0856 0.161794,-0.433712 0.289904,-1.324467 0.02679,-0.186267 0.139055,-0.446628 0.249598,-0.578259 0.110543,-0.131631 0.201021,-0.273337 0.201021,-0.31471 0,-0.09906 0.506022,-0.673344 0.593245,-0.673344 0.03726,0 -0.04332,0.205199 -0.179317,0.456303 -0.521752,0.963318 -0.704444,1.800507 -0.464571,2.128553 0.223001,0.304967 0.518112,0.02232 1.002523,-0.959632 0.892721,-1.809638 1.309958,-0.386062 0.565857,1.930632 -0.510304,1.588771 -0.363453,3.047876 0.306958,3.047876 0.76503,0 1.100035,-1.658988 0.756026,-3.746542 -0.284394,-1.725786 0.11036,-3.111438 0.886769,-3.111438 z m 0.859379,1.288811 c 0.43337,-0.0084 0.65349,0.711943 0.334346,1.160135 -0.212698,0.298706 -0.578119,0.352057 -0.811837,0.118339 -0.284427,-0.284427 0.0365,-1.225014 0.435116,-1.275374 0.01441,-0.0018 0.02839,-0.0028 0.04237,-0.0031 z m 0.341581,2.183846 c 0.500769,-0.0047 0.66024,0.727208 0.456303,2.092895 -0.08495,0.568902 0.249897,1.343315 0.644922,1.492415 0.270165,0.101978 0.294518,0.15916 0.12764,0.297657 -0.08709,0.07228 -0.150455,0.05456 -0.267167,-0.07441 -0.191508,-0.211614 -0.813179,-0.234948 -0.977718,-0.03669 -0.09961,0.120022 -0.116798,0.120022 -0.183968,0 -0.08226,-0.146986 -0.449484,-0.179822 -0.531234,-0.04754 -0.02878,0.04657 -0.09417,0.08423 -0.14521,0.08423 -0.05102,0 -0.03136,-0.0677 0.04393,-0.150896 0.359852,-0.397628 0.436316,-0.772789 0.438216,-2.159041 0.0019,-1.399068 0.02686,-1.495216 0.394291,-1.498616 z m 4.825545,0.649572 c 0.0051,0.001 0.01033,0.0054 0.0155,0.01292 0.04139,0.06042 0.08427,0.326933 0.09147,0.745691 0.0066,0.381387 0.05114,0.566977 0.167949,0.696082 0.213486,0.23596 0.04783,0.725374 -0.217041,0.641304 -0.20007,-0.0635 -0.545171,0.15153 -0.619601,0.386023 -0.03329,0.104886 -0.277746,0.283715 -0.614949,0.449585 -0.59453,0.292443 -0.788027,0.579334 -0.58136,0.861963 0.103644,0.141737 0.177723,0.152367 0.842843,0.123507 0.468432,-0.02033 0.655208,0.09846 0.510046,0.324011 -0.09869,0.15335 -0.172565,0.159128 -0.797367,0.06098 -0.585894,-0.09204 -0.893824,0.33367 -0.531234,0.734322 0.210553,0.232658 0.08813,0.186214 -0.134876,-0.05116 -0.182956,-0.194748 -0.187644,-0.22842 -0.08527,-0.627869 0.0949,-0.3703 0.0913,-0.449163 -0.03256,-0.638204 -0.07768,-0.118561 -0.141593,-0.353518 -0.141593,-0.522449 0,-0.307145 1.77e-4,-0.307019 -0.465605,-0.278019 -0.51075,0.0318 -0.548277,0.0029 -0.296106,-0.225309 0.09313,-0.08428 0.172,-0.251745 0.1757,-0.372587 0.0039,-0.12882 0.02613,-0.167478 0.05323,-0.09302 0.595418,1.636334 2.583323,0.314381 2.593123,-1.724442 0.0017,-0.354699 0.03232,-0.510421 0.0677,-0.503329 z m 0.398425,2.446879 c 0.008,-1.73e-4 0.01879,0.0064 0.03204,0.01964 0.04519,0.04515 0.06741,0.152822 0.04909,0.239262 -0.02467,0.116397 -0.04603,0.09503 -0.08216,-0.08217 -0.02363,-0.115873 -0.02311,-0.176215 0.001,-0.176734 z m -10.771952,0.05581 c 0.04322,-0.0063 0.06861,0.04929 0.119373,0.160714 0.129488,0.28419 0.476806,0.456138 0.642854,0.318326 0.09565,-0.07938 0.117327,-0.0522 0.116272,0.145728 -0.002,0.369948 -0.132892,0.523592 -0.204121,0.239779 -0.05698,-0.227013 -0.06687,-0.230122 -0.552938,-0.179318 -0.611921,0.06396 -0.709463,-0.06908 -0.347783,-0.473872 0.122126,-0.136683 0.18312,-0.205042 0.226343,-0.211357 z m -1.419035,0.577742 c 0.06269,0.01693 0.09749,0.08837 0.09767,0.219625 0.0012,0.916542 0.89295,1.453116 1.575614,0.948263 0.177209,-0.131053 0.156968,-0.09425 -0.07338,0.132808 -0.329024,0.324324 -0.373822,0.461082 -0.236162,0.718303 0.06938,0.129642 0.05107,0.145684 -0.127124,0.111621 -0.183977,-0.03517 -0.207739,-0.01012 -0.207739,0.217558 0,0.1605 -0.105138,0.395299 -0.279053,0.623734 -0.404801,0.531708 -0.415303,0.557554 -0.312125,0.750342 0.244984,0.457762 1.172197,0.676087 1.470711,0.346232 0.266025,-0.293953 0.217049,-0.624501 -0.117822,-0.796334 -0.296333,-0.152056 -0.296141,-0.152144 0.03101,-0.127641 0.336949,0.02524 0.340196,0.02239 0.561722,-0.454235 0.113617,-0.244451 0.0606,-0.410311 -0.131775,-0.410311 -0.177721,0 -0.153153,-0.06938 0.145728,-0.409794 0.267807,-0.305015 0.267427,-0.304788 0.208773,0.06201 -0.08794,0.549929 0.391344,0.857303 0.719336,0.461471 0.104745,-0.126412 0.12038,-0.115661 0.159163,0.10542 0.08666,0.493989 0.845214,0.577312 1.354439,0.148828 0.600765,-0.50551 0.489246,-1.502677 -0.195337,-1.747697 -0.06732,-0.02409 -0.03684,-0.106365 0.0894,-0.243913 0.104775,-0.114164 0.190169,-0.275679 0.190169,-0.359151 0,-0.103608 0.04242,-0.135335 0.133842,-0.100252 0.07366,0.02827 0.216843,0.05232 0.31781,0.05374 0.180077,0.0025 0.180059,0.0046 0.01395,0.09922 -0.483647,0.27558 -0.548505,0.504591 -0.211357,0.744657 0.306708,0.218395 0.326718,0.497574 0.08475,1.185458 -0.350544,0.996537 -0.129512,1.277373 0.804086,1.021126 0.811155,-0.222639 0.959555,-0.832501 0.190686,-0.783932 -0.402167,0.02541 -0.40256,0.02529 -0.40256,-0.402042 0,-0.604876 0.508506,-0.883685 0.608749,-0.33383 0.06566,0.360154 0.27165,0.715141 0.456303,0.785999 0.08887,0.0341 0.119465,0.168245 0.10852,0.47749 -0.01805,0.510047 0.136148,0.725409 0.460954,0.643888 0.293872,-0.07376 0.328429,-0.239281 0.127641,-0.613916 -0.173363,-0.323459 -0.173197,-0.323446 0.0155,-0.453202 0.103783,-0.07137 0.279399,-0.213601 0.390673,-0.31626 0.202327,-0.186651 0.202572,-0.186805 0.202572,0.0155 0,0.305854 0.141552,0.615653 0.326595,0.714685 0.227546,0.121779 0.541052,-0.134689 0.541052,-0.442867 0,-0.125245 0.03367,-0.227893 0.07441,-0.227893 0.04075,0 0.0739,0.03968 0.0739,0.08837 0,0.04868 0.09344,0.182327 0.207739,0.296622 0.388435,0.388435 1.031485,0.190464 0.960148,-0.295589 -0.03257,-0.221933 -0.03208,-0.222105 0.485758,-0.189136 0.62516,0.03981 1.316695,-0.257856 1.54926,-0.666625 0.229261,-0.402965 0.248543,-0.375258 0.382406,0.554488 0.02011,0.139695 0.079,0.464812 0.131258,0.722436 0.06266,0.308933 0.06892,0.608972 0.01809,0.881083 -0.08504,0.455181 0.0566,1.099866 0.326595,1.487248 0.234349,0.336231 0.282916,0.666949 0.131775,0.89762 -0.168329,0.256905 -0.298173,0.26003 -0.298173,0.0067 0,-0.107964 -0.05492,-0.384277 -0.121956,-0.613916 -0.06704,-0.229643 -0.161022,-0.760678 -0.208773,-1.179773 -0.155185,-1.362009 -0.369718,-1.689186 -1.174605,-1.792656 -1.283572,-0.165005 -1.842175,1.219772 -1.20096,2.978113 0.473033,1.297164 0.871966,3.410832 0.453719,2.403988 -0.35231,-0.848107 -0.887701,-0.589206 -0.711585,0.344165 0.06195,0.328318 0.08669,0.623349 0.05478,0.655257 -0.13411,0.13411 -0.302884,-0.234763 -0.434082,-0.948263 -0.181431,-0.986682 -0.322767,-1.289423 -1.004073,-2.15129 -0.579581,-0.73318 -0.713125,-1.117062 -0.425814,-1.227315 0.214441,-0.08229 0.371492,0.104993 0.718819,0.859896 0.621046,1.349807 1.220564,0.600153 0.672828,-0.841292 -0.19463,-0.512197 -0.61216,-0.957922 -0.98547,-1.051616 -0.626957,-0.157358 -1.458978,0.224323 -1.484664,0.681096 -0.0095,0.169753 -0.0111,0.169741 -0.04806,0.0052 -0.188852,-0.840904 -0.31833,-0.937034 -0.957047,-0.712101 -0.839832,0.295758 -1.473879,0.182007 -2.419491,-0.434082 -0.7357,-0.479325 -1.202952,-0.435982 -1.441256,0.134359 -0.310782,0.743815 -0.102682,1.053422 0.711585,1.0573 1.105218,0.0053 1.19572,0.593634 0.350883,2.284098 -0.805414,1.61158 -2.73158,2.264423 -3.217892,1.090373 -0.279798,-0.675505 0.129751,-0.940057 0.89917,-0.580327 0.937747,0.438434 1.469163,0.333693 1.822628,-0.359151 0.288626,-0.565748 0.04498,-1.706941 -0.385506,-1.805575 -0.09546,-0.02187 -0.422481,-0.09587 -0.726571,-0.164331 -0.304091,-0.06846 -0.966503,-0.27798 -1.472261,-0.465604 -2.211131,-0.820263 -3.167045,0.826319 -2.242758,3.86333 0.584351,1.920041 2.199851,3.412626 3.956865,3.656107 2.834146,0.392754 4.288901,-1.727205 3.325378,-4.846732 -0.231941,-0.750949 -0.299587,-1.417928 -0.18035,-1.77922 0.116733,-0.353714 0.150671,-0.359469 0.756543,-0.129191 0.574226,0.218252 0.880656,0.126353 1.039213,-0.312125 0.10442,-0.28878 0.104694,-0.289195 0.212906,0.241329 0.05952,0.291783 0.185242,0.626415 0.27957,0.743107 0.739471,0.914794 1.249403,2.163175 1.313615,3.215824 0.03369,0.552212 0.03393,0.551922 -0.03979,0.04392 -0.225636,-1.554922 -1.469071,-3.515619 -2.30942,-3.641638 -0.694523,-0.104151 -1.144533,0.29661 -0.879016,0.782898 0.211927,0.388133 0.303214,0.612425 0.346749,0.852661 0.02277,0.125665 0.0798,0.361324 0.127124,0.523999 0.226249,0.777794 0.06433,1.549882 -0.627352,2.987931 -0.427184,0.888157 -0.406432,1.342844 0.07028,1.545642 0.262495,0.111666 0.262144,0.111905 -0.118856,0.276986 -0.503697,0.218245 -1.796402,0.300793 -2.170927,0.138493 -0.376729,-0.163257 -1.889514,-0.460954 -2.342492,-0.460954 -0.336021,0 -0.408704,-0.03573 -0.621668,-0.305408 -0.438453,-0.555209 -0.901153,-0.964799 -1.090372,-0.964799 -0.407801,0 -1.252949,-0.992014 -1.349789,-1.584399 -0.03209,-0.196317 -0.169532,-0.496682 -0.305408,-0.66766 -0.135871,-0.170972 -0.247013,-0.392824 -0.247013,-0.492476 0,-0.09965 -0.05323,-0.256593 -0.117822,-0.348816 -0.27666,-0.394988 -0.37338,-2.637549 -0.13746,-3.187402 0.112297,-0.261726 0.170533,-0.583991 0.170533,-0.946713 0,-0.600837 0.04609,-0.672757 0.905371,-1.408182 0.190429,-0.162984 0.531427,-0.588416 0.757576,-0.945162 0.493011,-0.777705 0.930221,-1.2166 1.118278,-1.165821 z m 11.821501,0.05684 c 0.341518,0.0049 0.72775,0.255665 0.443384,0.314709 -0.0098,0.002 -0.208484,-0.0072 -0.441317,-0.02015 -0.80103,-0.04479 -0.843473,-0.222702 -0.06976,-0.291972 0.02216,-0.002 0.04493,-0.0029 0.0677,-0.0026 z m -8.846489,0.106453 c 0.07741,0 -0.0021,0.499908 -0.08785,0.552938 -0.03798,0.02347 -0.09073,0.0066 -0.117823,-0.03721 -0.05443,-0.08807 0.116096,-0.515731 0.205672,-0.515731 z m 1.35599,0.08475 c 0.0015,-7.3e-5 0.0031,0 0.0047,0 0.04932,0 0.06599,0.03818 0.03721,0.08475 -0.02878,0.04657 -0.06887,0.08475 -0.0894,0.08475 -0.02053,0 -0.03772,-0.03818 -0.03772,-0.08475 0,-0.04511 0.03805,-0.08247 0.08527,-0.08475 z m 2.368848,0.114722 c 0.0011,-1.44e-4 0.0016,1.04e-4 0.0015,5.17e-4 -4.56e-4,0.0796 -0.331963,0.831153 -0.334863,0.759127 -0.0022,-0.05451 -0.118166,-0.123833 -0.257866,-0.154513 -0.246318,-0.0541 -0.364557,-0.296623 -0.144694,-0.296623 0.06,0 0.2504,-0.07208 0.42323,-0.160197 0.162027,-0.08261 0.296506,-0.146145 0.312643,-0.148311 z m 5.76709,0.225826 c 0.0063,-4.86e-4 0.02983,0.03502 0.07596,0.10697 0.05339,0.08325 0.07819,0.197798 0.05529,0.254248 -0.03005,0.07406 -0.04326,0.07504 -0.04806,0.0036 -0.0037,-0.0544 -0.02849,-0.168432 -0.05529,-0.253732 -0.02321,-0.07371 -0.03421,-0.110618 -0.02791,-0.111104 z m -3.47369,0.01602 c 0.0033,-1.09e-4 0.0064,4.13e-4 0.0098,0.0016 0.17868,0.05956 0.273335,0.489922 0.13746,0.625802 -0.06639,0.06643 -0.147168,0.09468 -0.179318,0.06253 -0.101677,-0.101684 -0.06931,-0.686513 0.03204,-0.68988 z m -1.579232,0.07028 c 0.0049,2.02e-4 0.0092,0.0013 0.01344,0.0031 0.02258,0.0097 0.03566,0.04247 0.03566,0.102836 0,0.06803 0.05306,0.167952 0.117822,0.221692 0.100084,0.08306 0.09656,0.157405 -0.0248,0.496611 -0.166572,0.465574 -0.381042,0.560326 -0.529683,0.234094 -0.08288,-0.181909 -0.07207,-0.288262 0.06253,-0.612882 0.112811,-0.272079 0.252271,-0.448491 0.325045,-0.445451 z m 0.709001,0.106453 c 0.0032,1.9e-5 0.0064,0.0012 0.0098,0.0031 0.02732,0.01531 0.06145,0.09205 0.126607,0.243912 0.2195,0.511612 0.141839,0.668116 -0.139526,0.28112 -0.10854,-0.149291 -0.127253,-0.255035 -0.07131,-0.399459 0.03212,-0.08292 0.05174,-0.128809 0.07441,-0.128674 z m -8.462016,0.236161 c -0.14974,0.0035 -0.200956,0.0844 -0.37207,0.38499 -0.129013,0.226632 -0.366648,0.551915 -0.528134,0.722953 -0.635845,0.673456 0.307116,1.325117 1.430404,0.98857 1.134767,-0.339981 0.877292,-1.916256 -0.339514,-2.079459 -0.07989,-0.01072 -0.140773,-0.01823 -0.190686,-0.01705 z m 4.844665,0.669727 c 0.178647,0 0.0406,0.38039 -0.147794,0.40721 -0.159914,0.02277 -0.176984,-0.0021 -0.127124,-0.188619 0.03165,-0.118341 0.086,-0.216156 0.120923,-0.217041 0.03493,-9.36e-4 0.104185,-0.0016 0.153995,-0.0016 z m -4.455025,0.304374 c 0.08656,-0.0314 0.142849,0.07522 0.0801,0.238745 -0.05258,0.137011 -0.287321,0.191053 -0.287321,0.06615 0,-0.03767 0.05146,-0.138988 0.114205,-0.224792 0.03228,-0.04414 0.06417,-0.06963 0.09302,-0.0801 z m 11.429793,1.643311 c 0.400927,0 0.61755,0.602318 0.315227,0.875915 -0.200281,0.181252 -0.232874,0.177232 -0.390674,-0.04806 -0.222734,-0.318002 -0.176115,-0.827856 0.07545,-0.827856 z m 0.396875,1.737361 c 0.01941,-0.0075 0.05519,0.04185 0.109555,0.167432 0.06047,0.1397 0.200952,0.539585 0.312125,0.888835 0.202132,0.634997 0.201782,0.635301 0.517281,0.625801 0.462638,-0.0139 0.503683,0.21749 0.114722,0.648023 -0.211454,0.234054 -0.302824,0.415403 -0.302824,0.599963 0,0.309647 -0.838098,1.192028 -1.364258,1.436605 -0.170427,0.07922 -0.414496,0.304681 -0.552421,0.510046 -0.24765,0.368742 -0.396348,0.450999 -0.977201,0.540019 -0.206796,0.03169 -0.452747,0.175029 -0.732255,0.426331 -0.415821,0.373853 -0.674106,0.517003 -0.414962,0.22996 0.195643,-0.216709 0.336534,-0.870034 0.302824,-1.404049 -0.03281,-0.519788 -0.0293,-0.522501 0.168465,-0.126607 0.530306,1.061584 1.938778,0.201961 1.966288,-1.199927 0.0077,-0.392656 0.02032,-0.428268 0.08062,-0.227376 0.105702,0.35215 0.244833,0.481624 0.517281,0.481624 0.737736,0 0.947386,-1.148509 0.46302,-2.533695 -0.177572,-0.507851 -0.266472,-1.040495 -0.208256,-1.062985 z m -5.15524,1.029912 c 0.05567,-0.0031 0.159811,0.08112 0.303857,0.263033 0.337531,0.426196 0.443872,0.704316 0.340031,0.889868 -0.103679,0.185216 -0.23236,0.183205 -0.30024,-0.0047 -0.02945,-0.08149 -0.14335,-0.355006 -0.253215,-0.607715 -0.126223,-0.290311 -0.161529,-0.471666 -0.120923,-0.524516 0.0076,-0.0099 0.01764,-0.0153 0.03049,-0.01602 z m 0.651639,3.056144 c 0.0037,8.1e-5 0.0072,0.0011 0.01085,0.0031 0.05913,0.03141 0.124175,0.303938 0.217041,0.829407 0.112603,0.63714 0.194776,0.900198 0.438217,1.408183 0.01674,0.03493 -0.136233,0.06356 -0.339515,0.06356 -0.203278,0 -0.562224,0.04998 -0.797884,0.111104 -0.428468,0.111145 -0.428358,0.111382 -0.235644,-0.172599 0.239696,-0.353211 0.426787,-0.918226 0.536918,-1.621606 0.06452,-0.412105 0.115229,-0.622364 0.170015,-0.621151 z"
     inkscape:label="Logo"
     sodipodi:nodetypes="ccccsccsssscssccssscsscsssssssssssssssssssssssssscsssscscsscsssssscsssscccscsssssssssssccsssscsscssssccssscssssssscscsccssccsssssssssssssssssssscsssscssssssssscsscsssssssscccccccsssssssssssssssccscssssssccsccsscccsssssssssssssssssssssccssssssssssscssssscscssscssssssssssssssssccssscscsssscscssssssscssscsssssssssscssscccccccccsccsscssssccccssssccccscccccccsccccscsssccsccssssssssssscscccccsssccsssssssscsssssssssssscsscccccsccscssscssss"
     transform="translate(-73.946615,-57.528944)" /></svg>
