<?xml version="1.0" encoding="UTF-8" standalone="no"?>
<!-- Created with Inkscape (http://www.inkscape.org/) -->

<svg
   width="36.885963mm"
   height="24.085823mm"
   viewBox="0 0 36.885963 24.085823"
   version="1.1"
   id="svg1"
   xml:space="preserve"
   inkscape:version="1.3.2 (091e20e, 2023-11-25, custom)"
   sodipodi:docname="LogoNome.svg"
   xmlns:inkscape="http://www.inkscape.org/namespaces/inkscape"
   xmlns:sodipodi="http://sodipodi.sourceforge.net/DTD/sodipodi-0.dtd"
   xmlns="http://www.w3.org/2000/svg"
   xmlns:svg="http://www.w3.org/2000/svg"><sodipodi:namedview
     id="namedview1"
     pagecolor="#505050"
     bordercolor="#ffffff"
     borderopacity="1"
     inkscape:showpageshadow="0"
     inkscape:pageopacity="0"
     inkscape:pagecheckerboard="1"
     inkscape:deskcolor="#505050"
     inkscape:document-units="mm"
     inkscape:zoom="4.0000001"
     inkscape:cx="67.499998"
     inkscape:cy="53.124999"
     inkscape:window-width="1366"
     inkscape:window-height="705"
     inkscape:window-x="-8"
     inkscape:window-y="-8"
     inkscape:window-maximized="1"
     inkscape:current-layer="svg1"
     showgrid="false" /><defs
     id="defs1"><inkscape:path-effect
       effect="bend_path"
       id="path-effect2"
       is_visible="true"
       lpeversion="1"
       bendpath="m 74.614207,71.59703 0.75861,-0.818555 0.537435,-0.553971 0.504362,-0.810287 1.223698,-1.322916 0.07441,-0.56224 0.744141,-0.752409 0.09922,-0.611849 0.479558,-0.909505 -0.239779,-0.578776 0.239779,-0.363802 0.03307,-0.51263 0.206705,-0.372071 0.0083,-0.529166 0.305925,-0.388607 0.37207,-0.587044 0.65319,-0.570508 0.09095,-0.380339 0.380338,-0.14056 0.520899,-0.520898 0.396875,-0.231511 0.802018,-0.429947 0.520898,-0.04961 0.363803,-0.272851 h 0.405143 l 0.421679,0.148828 0.47129,-1.480013 0.611849,-0.264584 0.248046,1.5875 0.124024,0.297657 0.570508,0.281119 0.644922,0.09095 0.214973,0.173633 0.214974,0.124023 0.347266,0.115755 0.429948,0.33073 0.272852,0.454752 0.03307,0.454753 0.239779,0.206705 0.06615,0.239779 0.01654,0.413412 0.239779,0.165364 0.181901,0.124024 v 0.380338 l -0.132292,0.165365 -0.08268,0.14056 0.07441,0.07441 h 0.231511 l -0.04961,0.421679 -0.198437,0.248047 0.03307,0.239779 0.124023,0.305924 0.02479,0.28112 -0.223243,0.338998 -0.0083,0.09922 0.206706,0.330729 0.06615,0.14056 -0.148828,0.223243 -0.02479,0.471289 0.388607,0.504362 -0.03307,0.248046 -0.132291,0.214974 -0.02479,0.148829 0.23151,0.206705 0.04134,0.256315 -0.08268,0.338998 -0.05788,0.181901 0.537435,0.735872 v 0.487826 l 0.148828,0.272851 -0.04961,0.661459 0.256315,0.520898 0.0083,0.752409 -0.05788,0.181901 0.0083,0.826823 0.157096,0.429948 0.438216,0.65319 0.01654,0.297656 -0.454753,0.735873 -0.02479,0.413411 0.14056,0.206706 -0.165365,0.214974 -0.413411,0.463021 -0.07441,0.595312 -0.214974,0.322461 -0.529167,0.405143 -0.322461,0.471289 -0.37207,0.115756 -0.223243,0.140559 -0.256315,0.454753 -0.239778,0.239779 -0.438216,0.214974 -0.471289,0.0083 -0.198438,0.07441 -0.702799,0.702799 -0.181901,0.115755 -0.264584,0.04134 -0.93431,0.04961 -0.223242,0.0083 -0.37207,0.09095 -1.339453,0.56224 -0.396875,0.09095 -0.926042,0.06614 h -0.686263 l -0.446484,-0.206705 -0.661459,-0.157097 -0.314192,-0.06615 -0.496094,-0.05788 -0.380339,-0.115755 -0.454752,0.02479 -0.487826,-0.198437 -0.28112,-0.520899 -0.272851,-0.355534 -0.256315,-0.09922 -0.289388,-0.115716 -0.314193,-0.07441 -0.992188,-1.21543 0.0083,-0.256315 -0.02479,-0.338997 -0.264583,-0.355534 -0.239779,-0.264583 -0.05788,-0.479558 -0.23151,-0.330729 -0.08268,-0.727604 -0.09922,-0.338997 -0.08268,-0.214974 0.124023,-0.272852 0.02479,-0.248047 -0.115756,-0.297656 -0.04134,-0.314193 0.148828,-0.438216 0.305925,-0.727604 z"
       prop_scale="1"
       scale_y_rel="false"
       vertical="false"
       hide_knot="false" /><inkscape:path-effect
       effect="bend_path"
       id="path-effect1"
       is_visible="true"
       lpeversion="1"
       bendpath="m 107.7264,60.988892 -0.66146,10.186458 -7.540625,-8.069792 3.293215,-1.083076 0.53788,2.03459 z"
       prop_scale="1"
       scale_y_rel="false"
       vertical="false"
       hide_knot="false" /></defs><path
     id="path60"
     style="display:inline;fill:#eef1c6;fill-opacity:1;stroke:#000000;stroke-width:0.179568;stroke-linecap:round;stroke-linejoin:round;stroke-miterlimit:1;stroke-opacity:0"
     inkscape:label="Titulo"
     d="m 21.944381,5.775911 c -1.265842,0.00962 -2.41819,0.7748115 -2.008914,1.6708215 0.343732,0.75253 1.102863,0.974905 1.900893,0.55659 0.868317,-0.455157 1.309192,-0.157375 0.919933,0.621473 -0.278319,0.556883 -0.788965,0.701251 -1.836711,0.520115 -2.519754,-0.435614 -3.710563,0.08113 -3.702182,1.6059395 0.0066,1.201889 1.484234,1.834248 1.827593,0.782102 0.230556,-0.706477 1.19943,-1.6441675 1.698879,-1.6441675 0.374946,0 0.303999,1.4079445 -0.14169,2.8155665 -0.913238,2.884273 -0.603041,4.822199 0.663208,4.14514 0.499333,-0.266994 0.580133,-1.072046 0.237437,-2.36314 -0.556608,-2.097005 -0.06755,-4.5702855 0.953603,-4.8237805 2.011029,-0.499222 2.477907,-2.790748 0.737911,-3.6211655 -0.393496,-0.1878033 -0.828015,-0.2687022 -1.24996,-0.265494 z m 3.064224,0.3093314 c -0.108311,0.00129 -0.224956,0.033676 -0.3423,0.1069701 -0.194041,0.121206 -0.263423,0.348318 -0.18623,0.607443 0.113218,0.380046 0.546461,0.503356 0.855403,0.243399 0.421176,-0.354393 0.186156,-0.875551 -0.221657,-0.949044 -0.034,-0.00611 -0.06912,-0.00919 -0.105216,-0.00877 z m 1.130717,1.3723611 c -0.04941,0.0017 -0.09839,0.0052 -0.146602,0.01087 -0.144654,0.01689 -0.283309,0.05107 -0.413493,0.09995 -0.260376,0.09777 -0.486513,0.254516 -0.657249,0.449621 -0.426816,0.487761 -0.507362,1.215773 0.08978,1.865119 1.069649,1.1632035 1.309658,2.0678835 0.88627,3.3384885 -0.07507,0.225288 -0.130144,0.419269 -0.164492,0.593766 -0.08588,0.436243 -0.04249,0.750791 0.139238,1.128962 0.03631,0.07563 0.07808,0.15383 0.125556,0.236034 0.147559,0.255401 0.249184,0.461075 0.312139,0.652335 0.04201,0.127507 0.06671,0.248689 0.07646,0.373866 0.01466,0.187765 -0.0048,0.384609 -0.05015,0.626032 -0.0188,0.0992 -0.03264,0.190584 -0.04106,0.274964 -0.0083,0.08438 -0.0112,0.161687 -0.0081,0.233227 0.01256,0.286159 0.121939,0.477586 0.364045,0.637605 0.06054,0.04001 0.129227,0.07796 0.206923,0.115036 0.07769,0.03708 0.164241,0.07329 0.260233,0.109425 0.03889,0.01464 0.08777,0.02669 0.144499,0.03613 0.397069,0.06606 1.17441,0.0077 1.540002,-0.130467 0.25097,-0.09486 0.466044,-0.222747 0.643919,-0.378074 h 3.53e-4 c 0.533776,-0.46622 0.732895,-1.180051 0.565009,-1.992431 -0.07462,-0.361058 -0.221854,-0.74164 -0.444366,-1.128612 -0.183604,-0.31933 -0.301471,-0.534785 -0.378073,-0.77193 -0.002,-0.0064 -0.0041,-0.01285 -0.0061,-0.01929 -0.124789,-0.399869 -0.134046,-0.869999 -0.137833,-2.004355 -0.0084,-2.4278565 -0.350166,-3.1908615 -1.820576,-4.0637735 -0.367031,-0.217895 -0.74019,-0.304411 -1.086175,-0.292499 z m 0.989375,2.185295 c 0.156925,0.01059 0.386047,0.188837 0.589557,0.5618505 0.11997,0.219893 0.125549,0.297008 0.127314,1.781299 5.09e-4,0.401538 0.0027,0.717996 0.0095,0.976399 0.02077,0.775208 0.08447,1.027681 0.275667,1.485292 0.403082,0.964695 0.166664,1.642998 -0.362993,1.041283 -0.38528,-0.437699 -0.415285,-0.722147 -0.351774,-3.330421 0.0061,-0.241448 0.0077,-0.434356 0.0034,-0.597624 -0.01466,-0.489802 -0.0933,-0.713271 -0.330376,-1.183674 -0.216967,-0.4305655 -0.175934,-0.6867625 -0.02246,-0.7287935 0.01921,-0.0052 0.03997,-0.0071 0.06244,-0.0056 z m -3.667458,0.157472 c -0.553393,-0.0012 -1.091254,0.2954035 -1.434439,0.8455825 -0.04903,0.0786 -0.09412,0.162296 -0.134676,0.251114 -0.104034,0.227835 -0.182006,0.432761 -0.23393,0.641815 -0.05193,0.209054 -0.07774,0.422314 -0.07751,0.666365 3.5e-4,0.366075 0.05927,0.801548 0.177112,1.397612 0.03928,0.198687 0.08513,0.415352 0.137482,0.653037 0.229278,1.041083 0.223733,1.544274 -0.02631,2.351917 -0.149845,0.484024 -0.184107,0.884316 -0.118895,1.174906 0.09782,0.435886 0.419738,0.62472 0.91257,0.478731 0.05476,-0.01622 0.111546,-0.03641 0.170449,-0.06103 0.2973,-0.124221 0.495763,-0.402579 0.591661,-0.777542 0.01602,-0.06249 0.02898,-0.127395 0.03929,-0.195 0.03081,-0.202814 0.0359,-0.427443 0.01473,-0.666715 -0.02117,-0.239273 -0.06867,-0.493319 -0.142747,-0.754746 -0.04941,-0.174284 -0.110544,-0.351804 -0.183777,-0.530637 -0.03662,-0.08942 -0.07627,-0.179243 -0.118893,-0.269001 -0.0874,-0.184046 -0.151145,-0.369678 -0.195,-0.552031 -0.002,-0.0081 -0.0041,-0.01611 -0.006,-0.0242 -0.04095,-0.177328 -0.06235,-0.351056 -0.06699,-0.516959 -2.33e-4,-0.0083 -5.75e-4,-0.01661 -6.79e-4,-0.0249 -0.0045,-0.251296 0.03013,-0.483401 0.0954,-0.680043 0.002,-0.006 0.0039,-0.01197 0.006,-0.01789 0.09147,-0.264939 0.239268,-0.463506 0.422614,-0.553434 0.231634,-0.113437 0.519796,-0.05454 0.821734,0.260583 0.438992,0.458159 0.559376,1.439326 0.31915,2.603383 -0.0911,0.441416 -0.151387,0.822859 -0.179918,1.148602 -0.04995,0.570049 -0.0027,0.969782 0.144851,1.222604 0.0844,0.144468 0.201568,0.240929 0.352473,0.293902 0.03773,0.01324 0.07765,0.0237 0.11959,0.03156 0.615937,0.115552 0.996107,-0.456655 1.004808,-1.276264 0.0041,-0.372549 -0.0688,-0.796091 -0.231125,-1.229618 -0.128719,-0.343778 -0.213737,-0.590913 -0.266891,-0.823136 -0.03543,-0.154813 -0.05681,-0.302922 -0.06733,-0.46891 -0.01581,-0.248981 -0.0075,-0.537877 0.01296,-0.948693 0.0228,-0.456712 0.02789,-0.850102 0.01262,-1.192091 -0.04581,-1.02597 -0.275857,-1.590377 -0.767724,-2.022243 -0.08398,-0.07374 -0.171177,-0.137865 -0.26058,-0.192543 h -3.53e-4 C 24.168831,9.9624575 24.029647,9.9014355 23.888421,9.8610315 h -3.53e-4 c -0.09411,-0.0269 -0.189088,-0.04465 -0.284083,-0.05366 h -3.53e-4 c -0.04758,-0.0045 -0.09495,-0.0069 -0.142387,-0.007 z m -3.212932,0.8410235 c -0.09557,-0.0012 -0.196803,0.03395 -0.287589,0.119244 -0.173589,0.163078 -0.168507,0.361773 0.01368,0.543964 0.170033,0.170033 0.39003,0.152074 0.557291,-0.04559 0.240233,-0.283905 0.0033,-0.614158 -0.28338,-0.617615 z m 3.155414,0.04208 c 0.04031,1.19e-4 0.08014,0.0039 0.11959,0.0098 0.0098,0.0014 0.01948,0.0035 0.02912,0.0053 0.07804,0.01468 0.152798,0.04099 0.221297,0.07996 0.0083,0.0048 0.01642,0.0096 0.02457,0.01473 0.03366,0.02118 0.06638,0.04457 0.09609,0.07225 0.534244,0.497757 -0.265989,1.272967 -0.961318,0.931156 -0.264402,-0.129976 -0.394814,-0.443778 -0.280925,-0.676184 0.109578,-0.223605 0.331686,-0.369744 0.57062,-0.418758 0.05972,-0.01226 0.120629,-0.01842 0.18097,-0.01824 z m 6.498455,1.885459 c -0.07242,7.46e-4 -0.149507,0.01643 -0.229368,0.0498 -0.223571,0.09341 -0.306173,0.238336 -0.306173,0.536599 0,0.415589 0.435571,0.648495 0.804896,0.430332 0.520813,-0.307649 0.237613,-1.021871 -0.269355,-1.016731 z m -10.758982,3.640456 c -0.08737,0 -0.07752,0.129521 0.01964,0.261986 0.07121,0.09708 0.07014,0.124534 -0.007,0.210081 -0.05823,0.06456 -0.07848,0.163093 -0.05927,0.287238 0.01609,0.10396 0.0029,0.322954 -0.02911,0.486797 -0.133471,0.682052 0.437803,1.05549 1.105114,0.722128 0.729611,-0.36448 0.207578,-1.667129 -0.655142,-1.634697 -0.153076,0.0058 -0.193573,-0.02086 -0.247256,-0.163084 -0.03533,-0.09361 -0.09261,-0.170449 -0.126961,-0.170449 z m 1.968581,1.219798 c -0.01623,-2e-6 -0.0327,0.0013 -0.0491,0.0042 -0.0012,2.09e-4 -0.0023,5.01e-4 -0.0035,6.79e-4 -0.05088,0.0097 -0.101915,0.03418 -0.149407,0.07716 -0.119333,0.107995 -0.139163,0.365167 -0.03613,0.468209 0.09763,0.09763 0.365912,0.08546 0.472769,-0.02139 0.208791,-0.208792 0.02328,-0.504273 -0.205872,-0.52748 -0.0095,-9.5e-4 -0.01908,-0.0014 -0.02876,-0.0014 z"
     sodipodi:nodetypes="cccscssccsssccccscccsccccccssscsccscccccccccscsssccssscccssscscscssccsccccssccsccscccsscccccccscscscccccssssccsscssscsscssccscccsssccscssscscsccccc" /><path
     id="path1"
     style="display:inline;fill:#eef1c6;fill-opacity:1;stroke:#000000;stroke-width:0.264583;stroke-linecap:round;stroke-linejoin:round;stroke-miterlimit:1;stroke-opacity:0"
     inkscape:label="Titulo"
     d="m 85.617219,57.66382 c -0.06835,0.01217 -0.174836,0.06434 -0.340547,0.148829 -0.362549,0.184836 -0.465201,0.302833 -0.467155,0.538468 -0.0044,0.531421 -0.263329,1.063789 -0.47749,0.982369 -0.294671,-0.112035 -0.542945,-0.09967 -0.809253,0.03927 -0.124917,0.06517 -0.344715,0.144159 -0.488343,0.1757 -0.143626,0.03155 -0.47733,0.187645 -0.741556,0.346749 -0.264223,0.15911 -0.528499,0.289388 -0.587561,0.289388 -0.05906,0 -0.197137,0.09606 -0.306442,0.21394 -0.109305,0.11788 -0.329691,0.280157 -0.489892,0.360185 -0.160197,0.08003 -0.303622,0.221578 -0.318844,0.314709 -0.01522,0.09313 -0.225092,0.362165 -0.466121,0.597897 -0.52074,0.509303 -0.903821,1.114404 -0.903821,1.42782 0,0.12433 -0.0605,0.342931 -0.134359,0.485758 -0.07386,0.142822 -0.113842,0.338136 -0.08888,0.433565 0.02616,0.10004 -0.02471,0.271471 -0.11989,0.405144 -0.197959,0.278007 -0.208448,0.444845 -0.03772,0.586527 0.173633,0.1441 0.163957,0.20285 -0.127124,0.775663 -0.1397,0.274911 -0.254248,0.576475 -0.254248,0.670244 0,0.09421 -0.208281,0.377239 -0.465605,0.632519 -0.326212,0.323611 -0.465605,0.527649 -0.465605,0.681612 0,0.261668 -0.249514,0.631669 -0.701766,1.040247 -0.18147,0.163948 -0.519443,0.593928 -0.751375,0.955497 -0.235874,0.3677 -0.644348,0.850023 -0.926558,1.094507 -0.6217,0.538585 -0.68426,0.652351 -0.712102,1.297595 -0.01289,0.298629 -0.09691,0.679351 -0.200504,0.907438 -0.269415,0.593177 -0.167182,2.619594 0.168465,3.338298 0.08842,0.189327 0.160714,0.421849 0.160714,0.516764 0,0.09492 0.09341,0.273505 0.207739,0.396875 0.11433,0.12337 0.233552,0.367097 0.264583,0.541569 0.05421,0.304815 0.284293,0.769877 0.513147,1.036629 0.455941,0.53145 0.63016,0.672821 0.989087,0.802535 0.298741,0.107966 0.473443,0.241852 0.649573,0.498161 0.425389,0.619048 0.549747,0.703498 1.122929,0.762744 1.003783,0.103753 1.546272,0.205166 2.010213,0.375171 0.657984,0.241113 2.015357,0.178906 2.75177,-0.12609 0.915218,-0.379049 1.48917,-0.534372 1.976107,-0.534851 0.708812,-6.99e-4 1.059058,-0.130238 1.493449,-0.552421 0.285622,-0.277595 0.456964,-0.378272 0.643371,-0.378272 0.450663,0 1.071903,-0.393773 1.291394,-0.818555 0.08773,-0.169778 0.242948,-0.302753 0.42323,-0.362251 0.156583,-0.05168 0.332209,-0.183246 0.390674,-0.292489 0.05847,-0.109244 0.268316,-0.333848 0.466121,-0.499194 0.269598,-0.225351 0.38694,-0.403171 0.469222,-0.709518 0.06037,-0.224768 0.219372,-0.525593 0.353467,-0.668693 0.206753,-0.220636 0.241668,-0.323734 0.229444,-0.677478 -0.01071,-0.309813 0.04504,-0.530503 0.216524,-0.857828 0.256854,-0.490282 0.244911,-0.620903 -0.108521,-1.154969 -0.197132,-0.297888 -0.221668,-0.431248 -0.264583,-1.440739 -0.026,-0.611728 -0.07966,-1.163538 -0.119373,-1.226281 -0.03972,-0.06274 -0.08504,-0.272231 -0.100252,-0.465605 -0.02571,-0.326907 -0.08059,-0.697722 -0.165881,-1.118795 -0.01944,-0.096 -0.132655,-0.286399 -0.251664,-0.42323 -0.178456,-0.205185 -0.207329,-0.303779 -0.164848,-0.562756 0.03626,-0.22104 0.0077,-0.388116 -0.09612,-0.56379 -0.127457,-0.215772 -0.132204,-0.285341 -0.03721,-0.514697 0.09801,-0.236624 0.09159,-0.285707 -0.05943,-0.452686 -0.222902,-0.246469 -0.284012,-0.524293 -0.180351,-0.821655 0.06492,-0.186233 0.05321,-0.288769 -0.05013,-0.446484 -0.12073,-0.184257 -0.12117,-0.235824 -0.0062,-0.51108 0.101309,-0.242467 0.107583,-0.350571 0.02997,-0.520899 -0.076,-0.166796 -0.07253,-0.292893 0.01602,-0.561206 0.08526,-0.258354 0.09042,-0.383574 0.02015,-0.496094 -0.05194,-0.08316 -0.07338,-0.303718 -0.04806,-0.492476 0.03864,-0.288075 0.01729,-0.357332 -0.133842,-0.438216 -0.117837,-0.06307 -0.179317,-0.177964 -0.179317,-0.33538 0,-0.131781 -0.07106,-0.330779 -0.15813,-0.441834 -0.08706,-0.111055 -0.1858,-0.335178 -0.219624,-0.498161 -0.138817,-0.668859 -1.02909,-1.354797 -1.9389,-1.493965 -0.45087,-0.06897 -0.792333,-0.242411 -0.847494,-0.430982 -0.09486,-0.324279 -0.222208,-1.171194 -0.222208,-1.476912 0,-0.186625 -0.0056,-0.282034 -0.06615,-0.302307 -0.01514,-0.0051 -0.03354,-0.0056 -0.05633,-0.0016 z m -0.155546,0.234611 c 0.0779,0 0.108052,0.04891 0.07803,0.127125 -0.06997,0.182334 0.208769,1.438312 0.365352,1.645894 0.08977,0.119014 0.329741,0.215943 0.751376,0.303857 0.340686,0.07104 0.664515,0.167877 0.719335,0.214974 0.05482,0.0471 0.270389,0.169934 0.479558,0.272852 0.426304,0.209752 0.762744,0.646545 0.762744,0.990637 0,0.125591 0.07636,0.297088 0.169499,0.381372 0.101378,0.09175 0.169498,0.260746 0.169498,0.421163 0,0.180278 0.06894,0.328338 0.211357,0.452169 0.241254,0.209772 0.251295,0.260452 0.109554,0.571541 -0.08764,0.192352 -0.08087,0.240718 0.04858,0.33538 0.142503,0.104205 0.143416,0.123722 0.0098,0.327629 -0.123896,0.189088 -0.128744,0.268771 -0.03617,0.629935 0.09073,0.354023 0.08705,0.440805 -0.02481,0.600481 -0.123673,0.176567 -0.133957,0.148914 -0.191719,-0.517281 -0.282476,-3.257874 -1.484099,-5.058864 -2.785877,-4.175456 -0.38321,0.260053 -0.366964,0.261333 -0.325045,-0.02429 0.09656,-0.657915 -1.693523,-1.074967 -2.768306,-0.644922 -0.185606,0.07426 -0.386674,0.117795 -0.446485,0.09663 -0.05981,-0.02115 0.06278,-0.0893 0.272335,-0.151412 0.20955,-0.06211 0.4675,-0.167872 0.573092,-0.234611 0.137262,-0.08676 0.31216,-0.105215 0.614433,-0.06511 0.478854,0.06352 0.506906,0.02931 0.693497,-0.839226 0.09159,-0.426324 0.316043,-0.719336 0.550354,-0.719336 z m 0.319361,3.047876 c 0.01089,0 -0.02106,0.152665 -0.0708,0.338998 -0.111422,0.417444 -1.12e-4,0.88653 0.399976,1.685168 0.642591,1.282703 0.789352,1.96655 0.612882,2.85564 -0.0727,0.366296 -0.143744,0.837416 -0.15813,1.046964 -0.02616,0.381 -0.0262,0.381123 -0.137976,0.127125 -0.0847,-0.192465 -0.09883,-0.55184 -0.05788,-1.482081 0.06093,-1.384364 -0.05628,-2.076131 -0.415996,-2.455147 -0.110489,-0.116418 -0.349403,-0.459029 -0.531233,-0.76171 -0.291524,-0.485281 -0.377262,-0.56549 -0.725538,-0.677479 -0.48921,-0.157307 -0.497302,-0.223078 -0.03617,-0.297656 0.197903,-0.03201 0.52636,-0.130606 0.730188,-0.219108 0.203823,-0.0885 0.379785,-0.160714 0.390674,-0.160714 z m -4.791439,0.0078 c 0.02334,-0.0045 0.04423,-7.23e-4 0.05891,0.01395 0.02131,0.02131 -0.01946,0.08682 -0.09043,0.145727 -0.08047,0.06678 -0.129191,0.07319 -0.129191,0.01705 0,-0.07674 0.09069,-0.16319 0.160714,-0.176733 z m 6.061645,0.331243 c 0.969651,0 2.008891,5.480846 1.043348,5.502506 -0.03179,7.13e-4 -0.07679,-0.06631 -0.100253,-0.147794 -0.02347,-0.08149 -0.03996,-0.624047 -0.03669,-1.206128 0.0086,-1.52348 -0.161912,-2.11913 -0.885217,-3.093868 -0.554784,-0.747629 -0.561068,-1.054716 -0.02119,-1.054716 z m -3.855578,0.168982 c 0.39526,0 0.457233,0.131171 0.09922,0.209806 -0.646906,0.142085 -0.849373,0.792882 -0.70435,2.264978 0.177188,1.798641 0.13927,2.992023 -0.117306,3.673678 -0.12164,0.323167 -0.205086,0.697364 -0.188102,0.842842 0.03019,0.258629 0.02794,0.260121 -0.187585,0.136426 -0.435722,-0.250073 -0.826877,-0.0778 -0.886251,0.390157 -0.105615,0.832384 -0.212113,0.936984 -0.168982,0.166398 0.0366,-0.653925 0.02229,-0.759574 -0.123507,-0.905371 -0.213842,-0.213842 -0.726745,-0.3133 -0.895036,-0.173633 -0.108123,0.08974 -0.12609,0.05566 -0.12609,-0.238745 0,-0.820714 -1.138611,-0.956457 -1.834513,-0.218591 -0.258032,0.273598 -0.282154,0.283158 -0.282154,0.111104 0,-0.115077 0.164151,-0.345357 0.42323,-0.593762 0.284202,-0.272491 0.42323,-0.475061 0.42323,-0.615466 0,-0.115026 0.120422,-0.443472 0.267167,-0.730188 0.258157,-0.504398 0.262413,-0.530281 0.133326,-0.800985 -0.09708,-0.203586 -0.108111,-0.305292 -0.04031,-0.373104 0.0856,-0.0856 0.161795,-0.433714 0.289905,-1.324467 0.02679,-0.186267 0.139054,-0.446628 0.249597,-0.578259 0.110543,-0.131631 0.201021,-0.273853 0.201021,-0.315226 0,-0.09906 0.506023,-0.673344 0.593246,-0.673344 0.03726,0 -0.04332,0.205199 -0.179318,0.456303 -0.52175,0.963316 -0.704442,1.801023 -0.464571,2.129069 0.223001,0.304965 0.518114,0.0218 1.002523,-0.960148 0.892719,-1.809636 1.309956,-0.385542 0.565857,1.931148 -0.510302,1.588767 -0.363451,3.047876 0.306958,3.047876 0.765028,0 1.100035,-1.659508 0.756026,-3.747058 -0.284392,-1.725782 0.110361,-3.111438 0.886768,-3.111438 z m 0.859379,1.289327 c 0.433368,-0.0084 0.65349,0.711427 0.334346,1.159619 -0.212696,0.298706 -0.57812,0.352057 -0.811836,0.118339 -0.284427,-0.284427 0.0365,-1.224498 0.435115,-1.274858 0.01441,-0.0018 0.0284,-0.0028 0.04238,-0.0031 z m 0.341581,2.183801 c 0.500769,-0.0047 0.66024,0.727212 0.456303,2.092895 -0.08495,0.568902 0.249897,1.342799 0.644922,1.491899 0.270165,0.101978 0.294519,0.159676 0.127641,0.298173 -0.08709,0.07228 -0.150457,0.05456 -0.267167,-0.07441 -0.191508,-0.211614 -0.81318,-0.234948 -0.977719,-0.03669 -0.09961,0.12002 -0.116798,0.12002 -0.183968,0 -0.08226,-0.146986 -0.449483,-0.179825 -0.531233,-0.04754 -0.02878,0.04657 -0.09417,0.08423 -0.145211,0.08423 -0.05102,0 -0.03136,-0.0677 0.04393,-0.150895 0.35985,-0.397628 0.436316,-0.772792 0.438216,-2.159042 0.0019,-1.399064 0.02686,-1.495216 0.394291,-1.498616 z m 4.825545,0.649056 c 0.0051,0.001 0.01033,0.0059 0.0155,0.01344 0.04139,0.06042 0.08427,0.326933 0.09147,0.745691 0.0066,0.381385 0.05114,0.566976 0.167948,0.696081 0.213486,0.23596 0.04783,0.725375 -0.217041,0.641305 -0.20007,-0.0635 -0.545172,0.15153 -0.6196,0.386023 -0.03329,0.104886 -0.277747,0.283715 -0.61495,0.449585 -0.594528,0.292441 -0.788027,0.579335 -0.58136,0.861962 0.103644,0.141737 0.177723,0.152367 0.842843,0.123507 0.46843,-0.02033 0.655208,0.09846 0.510046,0.324011 -0.09869,0.15335 -0.172567,0.159125 -0.797367,0.06098 -0.585894,-0.09204 -0.893824,0.33367 -0.531234,0.734322 0.210553,0.232656 0.08813,0.186214 -0.134875,-0.05116 -0.182956,-0.194748 -0.187639,-0.22842 -0.08527,-0.627869 0.0949,-0.370298 0.0913,-0.449163 -0.03256,-0.638204 -0.07768,-0.118559 -0.141593,-0.353519 -0.141593,-0.522448 0,-0.307145 1.77e-4,-0.30702 -0.465605,-0.27802 -0.510748,0.0318 -0.548275,0.0029 -0.296106,-0.225309 0.09313,-0.08428 0.172,-0.251745 0.1757,-0.372587 0.0039,-0.12882 0.02613,-0.167992 0.05323,-0.09353 0.595416,1.63633 2.583323,0.314893 2.593123,-1.723926 0.0017,-0.354699 0.03231,-0.510937 0.0677,-0.503845 z m 0.398426,2.446879 c 0.008,-1.73e-4 0.01879,0.0069 0.03204,0.02015 0.04519,0.04515 0.06741,0.152822 0.04909,0.239262 -0.02467,0.116395 -0.04604,0.09452 -0.08217,-0.08268 -0.02363,-0.115873 -0.02308,-0.176214 0.001,-0.176733 z m -10.771953,0.05581 c 0.04322,-0.0063 0.06861,0.04929 0.119373,0.160714 0.129488,0.28419 0.476807,0.456139 0.642855,0.318327 0.09565,-0.07938 0.117327,-0.0522 0.116272,0.145727 -0.002,0.369948 -0.132893,0.523592 -0.204122,0.239779 -0.05698,-0.227013 -0.06687,-0.230121 -0.552938,-0.179317 -0.611919,0.06396 -0.709462,-0.06908 -0.347782,-0.473873 0.122124,-0.136683 0.183119,-0.205042 0.226342,-0.211357 z m -1.419034,0.577742 c 0.06269,0.01693 0.09749,0.08837 0.09767,0.219625 0.0012,0.91654 0.892952,1.453115 1.575614,0.948262 0.177209,-0.131053 0.156968,-0.09425 -0.07338,0.132809 -0.329024,0.324322 -0.373821,0.461081 -0.236161,0.718302 0.06938,0.129642 0.05107,0.145684 -0.127124,0.111621 -0.183977,-0.03517 -0.20774,-0.01012 -0.20774,0.217558 0,0.1605 -0.105139,0.3953 -0.279052,0.623735 -0.404801,0.531706 -0.415304,0.557555 -0.312126,0.750341 0.244984,0.457762 1.172197,0.676087 1.470711,0.346232 0.266025,-0.293951 0.217049,-0.624502 -0.117822,-0.796333 -0.296333,-0.152056 -0.296145,-0.152144 0.03101,-0.127641 0.336947,0.02524 0.340197,0.02239 0.561723,-0.454236 0.113615,-0.244451 0.0606,-0.410311 -0.131775,-0.410311 -0.177721,0 -0.153152,-0.06938 0.145727,-0.409794 0.267807,-0.305015 0.267427,-0.304786 0.208773,0.06201 -0.08794,0.549927 0.391344,0.857302 0.719336,0.46147 0.104745,-0.126412 0.12038,-0.115661 0.159163,0.10542 0.08666,0.493989 0.845215,0.577312 1.35444,0.148828 0.600763,-0.505508 0.489244,-1.502677 -0.195337,-1.747697 -0.06732,-0.02409 -0.03684,-0.106366 0.0894,-0.243912 0.104775,-0.114164 0.190169,-0.27568 0.190169,-0.359152 0,-0.103606 0.04242,-0.135335 0.133842,-0.100252 0.07366,0.02827 0.216843,0.05232 0.31781,0.05374 0.180077,0.0025 0.180062,0.0046 0.01395,0.09922 -0.483647,0.27558 -0.548503,0.504592 -0.211357,0.744658 0.306708,0.218395 0.326716,0.497575 0.08475,1.185457 -0.350544,0.996535 -0.129511,1.277373 0.804085,1.021126 0.811153,-0.222637 0.959553,-0.8325 0.190686,-0.783931 -0.402167,0.02541 -0.402559,0.02529 -0.402559,-0.402043 0,-0.604874 0.508505,-0.883684 0.608748,-0.333829 0.06566,0.360152 0.27165,0.71514 0.456303,0.785998 0.08887,0.0341 0.119465,0.168247 0.10852,0.47749 -0.01805,0.510047 0.136148,0.72541 0.460954,0.643889 0.293872,-0.07376 0.328429,-0.239283 0.127641,-0.613916 -0.173363,-0.323459 -0.173194,-0.323447 0.0155,-0.453203 0.103783,-0.07137 0.2794,-0.213602 0.390674,-0.316259 0.202325,-0.186651 0.202571,-0.186802 0.202571,0.0155 0,0.305852 0.141554,0.615653 0.326595,0.714685 0.227546,0.121777 0.541053,-0.134691 0.541053,-0.442867 0,-0.125245 0.03367,-0.227894 0.07441,-0.227894 0.04075,0 0.0739,0.03968 0.0739,0.08837 0,0.04868 0.09344,0.182328 0.207739,0.296623 0.388435,0.388435 1.031485,0.190462 0.960148,-0.295589 -0.03257,-0.221933 -0.03208,-0.222105 0.485759,-0.189136 0.625158,0.03981 1.316694,-0.257857 1.549259,-0.666626 0.229261,-0.402965 0.248543,-0.375256 0.382406,0.554488 0.02011,0.139695 0.079,0.464813 0.131258,0.722437 0.06266,0.308931 0.06892,0.608972 0.01809,0.881083 -0.08504,0.455179 0.0566,1.099866 0.326595,1.487248 0.234349,0.336229 0.282914,0.666948 0.131775,0.897619 -0.168329,0.256905 -0.298173,0.260048 -0.298173,0.0067 0,-0.107964 -0.05492,-0.384277 -0.121957,-0.613916 -0.06704,-0.229643 -0.161022,-0.760678 -0.208773,-1.179773 -0.155183,-1.362007 -0.36972,-1.689185 -1.174605,-1.792655 -1.28357,-0.165005 -1.842173,1.219775 -1.20096,2.978112 0.473031,1.297162 0.871966,3.41083 0.453719,2.403988 -0.35231,-0.848105 -0.887699,-0.589204 -0.711585,0.344165 0.06195,0.328318 0.08669,0.623349 0.05478,0.655257 -0.134108,0.13411 -0.302884,-0.234764 -0.434082,-0.948262 -0.181429,-0.98668 -0.322767,-1.289425 -1.004073,-2.15129 -0.579579,-0.733178 -0.713124,-1.117062 -0.425813,-1.227315 0.214439,-0.08229 0.371492,0.104994 0.718819,0.859895 0.621044,1.349805 1.220561,0.600151 0.672827,-0.841292 -0.19463,-0.512195 -0.61216,-0.957921 -0.98547,-1.051615 -0.626955,-0.157358 -1.458978,0.224324 -1.484664,0.681095 -0.0095,0.169753 -0.0111,0.170224 -0.04806,0.0057 -0.18885,-0.840904 -0.318332,-0.937033 -0.957047,-0.712102 -0.83983,0.295758 -1.473881,0.182007 -2.419491,-0.434082 -0.735698,-0.479323 -1.202953,-0.43598 -1.441255,0.134359 -0.310782,0.743813 -0.102681,1.053422 0.711584,1.0573 1.105216,0.0053 1.195718,0.593638 0.350883,2.284098 -0.805412,1.611576 -2.731581,2.264421 -3.217891,1.090373 -0.279798,-0.675505 0.129752,-0.940055 0.899169,-0.580327 0.937747,0.438434 1.469165,0.333693 1.822628,-0.359151 0.288626,-0.565746 0.04498,-1.70694 -0.385506,-1.805574 -0.09546,-0.02187 -0.422481,-0.09587 -0.726571,-0.164331 -0.304089,-0.06846 -0.966505,-0.277981 -1.472261,-0.465605 -2.211127,-0.820261 -3.167042,0.826325 -2.242757,3.86333 0.584349,1.920037 2.199854,3.412627 3.956864,3.656108 2.83414,0.392752 4.2889,-1.727212 3.325379,-4.846733 C 82.637647,74.89368 82.57,74.226698 82.689237,73.865408 c 0.116733,-0.353714 0.150671,-0.359468 0.756543,-0.129192 0.574224,0.218252 0.880656,0.126351 1.039213,-0.312125 0.10442,-0.28878 0.104695,-0.289195 0.212907,0.241329 0.05952,0.291781 0.185241,0.626415 0.279569,0.743107 0.739469,0.914792 1.249403,2.163177 1.313615,3.215824 0.03369,0.552212 0.03393,0.551927 -0.03979,0.04393 -0.225634,-1.554918 -1.469072,-3.515619 -2.309419,-3.641638 -0.694523,-0.104151 -1.144532,0.29661 -0.879017,0.782898 0.211927,0.388133 0.303214,0.612425 0.346749,0.852661 0.02277,0.125665 0.0798,0.361324 0.127124,0.523999 0.226249,0.777792 0.06433,1.549886 -0.627352,2.987931 -0.427182,0.888157 -0.40643,1.342845 0.07028,1.545643 0.262495,0.111664 0.262143,0.111904 -0.118855,0.276985 -0.503697,0.218245 -1.796404,0.300793 -2.170927,0.138493 -0.376729,-0.163257 -1.889515,-0.460954 -2.342493,-0.460954 -0.336021,0 -0.408704,-0.03573 -0.621668,-0.305407 -0.438451,-0.555209 -0.901153,-0.964799 -1.090372,-0.964799 -0.407801,0 -1.252949,-0.992015 -1.349789,-1.5844 -0.03209,-0.196317 -0.169531,-0.496683 -0.305407,-0.667659 -0.135871,-0.170972 -0.247014,-0.392825 -0.247014,-0.492477 0,-0.09965 -0.05323,-0.256593 -0.117822,-0.348816 -0.27666,-0.394986 -0.373379,-2.637551 -0.137459,-3.187402 0.112297,-0.261726 0.170532,-0.583992 0.170532,-0.946712 0,-0.600837 0.04609,-0.67276 0.905371,-1.408183 0.190429,-0.162984 0.531428,-0.588416 0.757577,-0.945162 0.493009,-0.777703 0.930221,-1.216599 1.118278,-1.16582 z m 11.8215,0.05684 c 0.341518,0.0049 0.72775,0.255667 0.443384,0.314709 -0.0098,0.002 -0.208484,-0.0072 -0.441317,-0.02015 -0.801028,-0.04479 -0.843474,-0.222702 -0.06976,-0.291972 0.02216,-0.002 0.04493,-0.0029 0.0677,-0.0026 z m -8.846488,0.106453 c 0.07741,0 -0.0021,0.499908 -0.08785,0.552938 -0.03798,0.02347 -0.09073,0.0066 -0.117822,-0.03721 -0.05443,-0.08807 0.116096,-0.515731 0.205672,-0.515731 z m 1.355989,0.08475 c 0.0015,-7.3e-5 0.0031,0 0.0047,0 0.04932,0 0.06599,0.03818 0.03721,0.08475 -0.02878,0.04657 -0.06887,0.08475 -0.0894,0.08475 -0.02053,0 -0.03772,-0.03818 -0.03772,-0.08475 0,-0.04511 0.03805,-0.08247 0.08527,-0.08475 z m 2.368848,0.114721 c 0.0011,-1.44e-4 0.0017,1.04e-4 0.0016,5.17e-4 -4.56e-4,0.0796 -0.331963,0.831153 -0.334863,0.759127 -0.0022,-0.05451 -0.118167,-0.123834 -0.257865,-0.154512 -0.246318,-0.0541 -0.364557,-0.296623 -0.144694,-0.296623 0.06,0 0.2504,-0.07208 0.42323,-0.160197 0.162025,-0.08261 0.296505,-0.146146 0.312642,-0.148312 z m 5.76709,0.225826 c 0.0063,-4.86e-4 0.02983,0.03502 0.07596,0.106971 0.05339,0.08325 0.07819,0.197798 0.05529,0.254248 -0.03005,0.07406 -0.04326,0.07506 -0.04806,0.0036 -0.0037,-0.0544 -0.02849,-0.168431 -0.05529,-0.253731 -0.02321,-0.07371 -0.03421,-0.110619 -0.0279,-0.111105 z m -3.47369,0.01602 c 0.0033,-1.09e-4 0.0064,8.8e-4 0.0098,0.0021 0.178678,0.05956 0.273334,0.489922 0.137459,0.625802 -0.06639,0.06643 -0.147167,0.09468 -0.179317,0.06253 -0.101677,-0.101684 -0.06931,-0.686513 0.03204,-0.68988 z m -1.579232,0.07028 c 0.0049,2.02e-4 0.0092,0.0013 0.01344,0.0031 0.02258,0.0097 0.03566,0.04247 0.03566,0.102836 0,0.06803 0.05306,0.167952 0.117822,0.221692 0.100084,0.08306 0.09656,0.157406 -0.02481,0.49661 -0.16657,0.465574 -0.381042,0.560326 -0.529683,0.234094 -0.08288,-0.181907 -0.07207,-0.288262 0.06253,-0.612882 0.112809,-0.272079 0.25227,-0.448491 0.325044,-0.445451 z m 0.709001,0.106454 c 0.0032,1.9e-5 0.0064,0.0012 0.0098,0.0031 0.02732,0.01531 0.06145,0.09205 0.126608,0.243913 0.219498,0.51161 0.141838,0.668114 -0.139527,0.28112 -0.10854,-0.149291 -0.127256,-0.255035 -0.07131,-0.399459 0.03212,-0.08292 0.05174,-0.128809 0.07441,-0.128674 z m -8.462016,0.236161 c -0.14974,0.0035 -0.200956,0.0844 -0.37207,0.384989 -0.129013,0.226632 -0.366647,0.551916 -0.528133,0.722954 -0.635845,0.673454 0.307117,1.325115 1.430403,0.98857 1.134765,-0.339981 0.87729,-1.916257 -0.339514,-2.07946 -0.07989,-0.01072 -0.140773,-0.01823 -0.190686,-0.01705 z m 4.844666,0.669726 c 0.178645,0 0.0406,0.380391 -0.147795,0.407211 -0.159914,0.02277 -0.176984,-0.0021 -0.127124,-0.188619 0.03165,-0.118341 0.086,-0.216156 0.120923,-0.217041 0.03493,-9.36e-4 0.104186,-0.0016 0.153996,-0.0016 z m -4.455026,0.304375 c 0.08656,-0.0314 0.142848,0.07522 0.0801,0.238745 -0.05258,0.137011 -0.287321,0.191047 -0.287321,0.06615 0,-0.03767 0.05146,-0.138989 0.114205,-0.224793 0.03228,-0.04414 0.06417,-0.06963 0.09302,-0.0801 z m 11.429794,1.64331 c 0.400925,0 0.617549,0.602319 0.315226,0.875916 -0.200281,0.181252 -0.232874,0.177231 -0.390674,-0.04806 -0.222734,-0.318002 -0.176117,-0.827857 0.07545,-0.827857 z m 0.396875,1.737362 c 0.01941,-0.0075 0.05519,0.04185 0.109554,0.167431 0.06047,0.1397 0.200954,0.539585 0.312125,0.888835 0.202132,0.634995 0.201783,0.635302 0.517282,0.625802 0.462636,-0.0139 0.503682,0.217491 0.114721,0.648022 -0.211454,0.234054 -0.302824,0.415404 -0.302824,0.599964 0,0.309645 -0.838098,1.192029 -1.364258,1.436604 -0.170425,0.07922 -0.414496,0.304682 -0.552421,0.510047 -0.247648,0.36874 -0.396348,0.451 -0.977201,0.540018 -0.206796,0.03169 -0.452747,0.175029 -0.732255,0.426331 -0.415821,0.373853 -0.674104,0.517003 -0.414962,0.22996 0.195643,-0.216709 0.336534,-0.870034 0.302824,-1.404049 -0.03281,-0.519786 -0.0293,-0.522499 0.168465,-0.126607 0.530306,1.061582 1.938779,0.201959 1.966289,-1.199927 0.0077,-0.392654 0.02031,-0.428268 0.08061,-0.227376 0.105702,0.35215 0.244833,0.481625 0.517281,0.481625 0.737734,0 0.947385,-1.148512 0.463021,-2.533696 -0.177572,-0.507849 -0.266472,-1.040494 -0.208256,-1.062984 z m -5.155241,1.029911 c 0.05567,-0.0031 0.159811,0.08112 0.303857,0.263033 0.337531,0.426196 0.443872,0.704318 0.340031,0.889868 -0.103679,0.185216 -0.23236,0.183254 -0.30024,-0.0047 -0.02945,-0.08149 -0.143351,-0.355007 -0.253214,-0.607714 -0.126223,-0.290311 -0.161529,-0.471666 -0.120923,-0.524516 0.0076,-0.0099 0.01764,-0.0153 0.03049,-0.01602 z m 0.65164,3.056144 c 0.0037,8.1e-5 0.0072,0.0011 0.01085,0.0031 0.05913,0.03141 0.124175,0.303938 0.217041,0.829407 0.112603,0.637138 0.194775,0.900199 0.438216,1.408182 0.01674,0.03493 -0.136232,0.06356 -0.339514,0.06356 -0.203278,0 -0.562226,0.04998 -0.797884,0.111105 -0.428468,0.111145 -0.428359,0.111381 -0.235645,-0.1726 0.239696,-0.353209 0.426787,-0.918228 0.536918,-1.621606 0.06452,-0.412105 0.11523,-0.622364 0.170016,-0.621151 z"
     transform="translate(-73.946615,-57.528944)"
     sodipodi:nodetypes="sccccccsscccsccccsscsscccssssssscssssssssscsssssccccsscscsscsssscscccssccscccscscssssccccssccsccsssccccscssscsscccscscsscssccsccssscscssssscssssccscsssccsscccsccsccccccccssscscccssssssscccccscccsccccssscssscccccssssssccscccscscssssssccssssscscsscccssssscsscssssssccssscsccssscscsscccsccscsccssssssssscsssccccccccsccsssssssscccsscsccccsccccccscscsscssccssscsscccscccsccsssccsscscssscscssssssssccssscccsssscscssscssscscssscssscsccscssscscss" /></svg>
