<?xml version="1.0" encoding="UTF-8" standalone="no"?>
<!-- Created with Inkscape (http://www.inkscape.org/) -->

<svg
   width="19.758453mm"
   height="18.733068mm"
   viewBox="0 0 19.758453 18.733068"
   version="1.1"
   id="svg1"
   xml:space="preserve"
   inkscape:version="1.3.2 (091e20e, 2023-11-25, custom)"
   sodipodi:docname="Nome.svg"
   xmlns:inkscape="http://www.inkscape.org/namespaces/inkscape"
   xmlns:sodipodi="http://sodipodi.sourceforge.net/DTD/sodipodi-0.dtd"
   xmlns="http://www.w3.org/2000/svg"
   xmlns:svg="http://www.w3.org/2000/svg"><sodipodi:namedview
     id="namedview1"
     pagecolor="#505050"
     bordercolor="#ffffff"
     borderopacity="1"
     inkscape:showpageshadow="0"
     inkscape:pageopacity="0"
     inkscape:pagecheckerboard="1"
     inkscape:deskcolor="#505050"
     inkscape:document-units="mm"
     inkscape:zoom="1.4142136"
     inkscape:cx="38.890872"
     inkscape:cy="104.29825"
     inkscape:window-width="1366"
     inkscape:window-height="705"
     inkscape:window-x="-8"
     inkscape:window-y="-8"
     inkscape:window-maximized="1"
     inkscape:current-layer="svg1" /><defs
     id="defs1" /><path
     id="path60"
     style="display:inline;fill:#ffffff;fill-opacity:1;stroke:#ffff;stroke-width:0.264583;stroke-linecap:round;stroke-linejoin:round;stroke-miterlimit:1;stroke-opacity:0"
     d="m 98.171426,61.236422 c -1.865153,0.01418 -3.563071,1.141639 -2.960026,2.461865 0.506473,1.108814 1.625007,1.436469 2.800862,0.820105 1.279422,-0.670652 1.929024,-0.231886 1.355473,0.915706 -0.410091,0.820539 -1.162495,1.033256 -2.706295,0.766362 -3.712727,-0.641856 -5.467312,0.119533 -5.454964,2.366264 0.0097,1.770921 2.186937,2.702667 2.692859,1.152384 0.339713,-1.040958 1.767294,-2.422591 2.503206,-2.422591 0.552464,0 0.447928,2.074523 -0.208772,4.148584 -1.345609,4.249827 -0.888552,7.10525 0.977201,6.107638 0.735742,-0.393401 0.854795,-1.579597 0.349849,-3.481958 -0.820131,-3.089828 -0.09953,-6.734066 1.405083,-7.107577 2.963148,-0.735579 3.651058,-4.112015 1.087268,-5.335592 -0.579796,-0.276718 -1.220028,-0.395917 -1.841744,-0.39119 z m 4.514974,0.455786 c -0.15959,0.0019 -0.33147,0.04962 -0.50437,0.157613 -0.28591,0.178593 -0.38814,0.513227 -0.2744,0.895036 0.16682,0.559977 0.80518,0.741668 1.26039,0.358634 0.62058,-0.522179 0.27429,-1.290076 -0.3266,-1.398364 -0.0501,-0.009 -0.10183,-0.01354 -0.15502,-0.01292 z m 1.66604,2.022099 c -0.0728,0.0025 -0.14496,0.0077 -0.216,0.01602 -0.21314,0.02489 -0.41745,0.07525 -0.60927,0.147278 -0.38365,0.144061 -0.71685,0.375015 -0.96842,0.662492 -0.62889,0.718692 -0.74756,1.791374 0.1323,2.748153 1.57607,1.713918 1.9297,3.046908 1.30586,4.919079 -0.11061,0.331952 -0.19175,0.61777 -0.24236,0.874882 -0.12654,0.642783 -0.0626,1.106249 0.20515,1.663465 0.0535,0.111443 0.11504,0.226659 0.185,0.347782 0.21742,0.376322 0.36716,0.67937 0.45992,0.961182 0.0619,0.187874 0.0983,0.366429 0.11266,0.550871 0.0216,0.276662 -0.007,0.566698 -0.0739,0.922424 -0.0277,0.146166 -0.0481,0.280815 -0.0605,0.405143 -0.0123,0.124328 -0.0165,0.238238 -0.0119,0.343648 0.0185,0.421642 0.17967,0.703696 0.5364,0.939478 0.0892,0.05895 0.19041,0.114868 0.30489,0.169499 0.11448,0.05463 0.242,0.107994 0.38344,0.16123 0.0573,0.02157 0.12932,0.03932 0.2129,0.05323 0.58506,0.09733 1.73044,0.01137 2.26912,-0.192237 0.36979,-0.139771 0.68668,-0.328205 0.94877,-0.557072 h 5.2e-4 c 0.78649,-0.686952 1.0799,-1.738738 0.83251,-2.935738 -0.10995,-0.531999 -0.32688,-1.092766 -0.65474,-1.662947 -0.27055,-0.470518 -0.4442,-0.787978 -0.55707,-1.137398 -0.003,-0.0094 -0.006,-0.01893 -0.009,-0.02842 -0.18387,-0.589186 -0.1975,-1.281892 -0.20308,-2.953308 -0.0124,-3.57732 -0.51596,-4.701556 -2.68253,-5.987748 -0.5408,-0.321056 -1.09063,-0.448532 -1.60042,-0.430981 z m 1.4578,3.219958 c 0.23122,0.0156 0.56882,0.27824 0.86868,0.827857 0.17677,0.324 0.18498,0.43762 0.18758,2.624646 7.5e-4,0.591645 0.004,1.057928 0.0139,1.438672 0.0306,1.142229 0.12446,1.514228 0.40618,2.188496 0.59392,1.421429 0.24557,2.420871 -0.53485,1.534274 -0.56769,-0.644927 -0.61189,-1.064036 -0.51831,-4.907194 0.009,-0.355763 0.0118,-0.640001 0.005,-0.880567 -0.0216,-0.721697 -0.13748,-1.050964 -0.4868,-1.744079 -0.31969,-0.634416 -0.25926,-1.011907 -0.0331,-1.073837 0.0283,-0.0077 0.0589,-0.0105 0.092,-0.0083 z m -5.40381,0.232027 c -0.815391,-0.0018 -1.607898,0.435259 -2.113565,1.245919 -0.07224,0.115809 -0.138679,0.239134 -0.198437,0.370003 -0.153288,0.335702 -0.268175,0.637649 -0.344682,0.945679 -0.07651,0.308031 -0.11454,0.622257 -0.114205,0.981852 5.16e-4,0.539394 0.08733,1.181036 0.260966,2.059306 0.05787,0.292757 0.125441,0.611998 0.202572,0.962215 0.337828,1.533982 0.329657,2.2754 -0.03876,3.465422 -0.220788,0.713183 -0.271272,1.302991 -0.175183,1.73116 0.144132,0.642256 0.618458,0.920492 1.344621,0.705384 0.08068,-0.0239 0.164356,-0.05365 0.251147,-0.08992 0.438058,-0.183032 0.730486,-0.593177 0.871786,-1.145667 0.0236,-0.09208 0.0427,-0.187709 0.0579,-0.287321 0.0454,-0.298835 0.0529,-0.629812 0.0217,-0.982369 -0.0312,-0.352556 -0.10117,-0.726878 -0.21032,-1.112077 -0.0728,-0.256798 -0.16289,-0.518363 -0.27079,-0.781864 -0.05395,-0.13175 -0.112377,-0.264104 -0.175183,-0.396358 -0.128781,-0.271184 -0.222704,-0.5447 -0.287321,-0.813387 -0.0029,-0.01194 -0.006,-0.02374 -0.0088,-0.03566 -0.06033,-0.261284 -0.09187,-0.517262 -0.0987,-0.761711 -3.44e-4,-0.01228 -8.15e-4,-0.02447 -10e-4,-0.03669 -0.0066,-0.37027 0.04439,-0.712263 0.14056,-1.002006 0.0029,-0.0088 0.0058,-0.01764 0.0088,-0.02636 0.134774,-0.390373 0.352541,-0.682949 0.622694,-0.815454 0.3413,-0.167145 0.76589,-0.08036 1.21078,0.383956 0.64683,0.675071 0.82422,2.120763 0.47026,3.835941 -0.13423,0.650405 -0.22306,1.212438 -0.2651,1.692404 -0.0736,0.839939 -0.004,1.428921 0.21342,1.80144 0.12436,0.212868 0.297,0.354997 0.51935,0.433049 0.0556,0.01951 0.11442,0.03492 0.17622,0.04651 0.90755,0.170259 1.46771,-0.672854 1.48053,-1.880505 0.006,-0.548932 -0.10137,-1.172995 -0.34055,-1.811776 -0.18966,-0.506539 -0.31494,-0.870679 -0.39326,-1.212846 -0.0522,-0.228109 -0.0837,-0.44634 -0.0992,-0.690914 -0.0233,-0.36686 -0.0111,-0.792531 0.0191,-1.397847 0.0336,-0.672942 0.0411,-1.252577 0.0186,-1.756482 -0.0675,-1.511713 -0.40646,-2.343333 -1.1312,-2.979663 -0.12374,-0.108648 -0.25223,-0.203139 -0.38396,-0.283704 h -5.1e-4 c -0.19764,-0.120828 -0.40273,-0.210733 -0.61082,-0.270267 h -5.2e-4 c -0.13866,-0.03964 -0.27861,-0.06579 -0.41858,-0.07906 h -5.1e-4 c -0.0701,-0.0066 -0.13992,-0.01019 -0.20981,-0.01034 z m -4.734077,1.239201 c -0.140814,-0.0017 -0.289978,0.05003 -0.423746,0.1757 -0.255775,0.240288 -0.24829,0.533053 0.02015,0.801502 0.250537,0.250534 0.574689,0.224074 0.821139,-0.06718 0.353971,-0.418319 0.0049,-0.904928 -0.417546,-0.910022 z m 4.649327,0.06201 c 0.0594,1.76e-4 0.1181,0.0058 0.17622,0.01447 0.0144,0.0021 0.0287,0.0051 0.0429,0.0078 0.11499,0.02163 0.22515,0.06039 0.32608,0.117822 0.0122,0.007 0.0242,0.01421 0.0362,0.0217 0.0496,0.03121 0.0978,0.06567 0.1416,0.106454 0.78718,0.733421 -0.39193,1.875649 -1.416456,1.372009 -0.389583,-0.191515 -0.581739,-0.653882 -0.413928,-0.996322 0.161458,-0.32947 0.488722,-0.544796 0.840774,-0.617016 0.088,-0.01806 0.17774,-0.02714 0.26665,-0.02687 z m 9.57513,2.778125 c -0.10671,0.0011 -0.2203,0.02421 -0.33797,0.07338 -0.32942,0.137639 -0.45113,0.351174 -0.45113,0.79065 0,0.612348 0.64179,0.955522 1.18597,0.63407 0.76739,-0.453306 0.35012,-1.505671 -0.39687,-1.4981 z m -15.852781,5.364014 c -0.12873,0 -0.114215,0.190843 0.02894,0.386023 0.104919,0.143041 0.103359,0.183492 -0.01033,0.309541 -0.0858,0.09512 -0.115637,0.240309 -0.08733,0.42323 0.0237,0.153179 0.0043,0.475855 -0.04289,0.717269 -0.196663,1.004969 0.645076,1.555208 1.628324,1.064018 1.075046,-0.537044 0.305858,-2.456425 -0.965315,-2.408639 -0.225549,0.0085 -0.285219,-0.03073 -0.364319,-0.240295 -0.05206,-0.137924 -0.136457,-0.251147 -0.187069,-0.251147 z m 2.900598,1.797306 c -0.02392,-3e-6 -0.04818,0.0019 -0.07235,0.0062 -0.0017,3.07e-4 -0.0034,7.04e-4 -0.0052,10e-4 -0.07497,0.01433 -0.150165,0.05036 -0.220142,0.113688 -0.175831,0.159125 -0.205055,0.538052 -0.05323,0.68988 0.143851,0.143851 0.53915,0.125926 0.696598,-0.03152 0.307644,-0.307644 0.0343,-0.74302 -0.30334,-0.777214 -0.01407,-0.0014 -0.02812,-0.0021 -0.04238,-0.0021 z"
     inkscape:label="Titulo"
     sodipodi:nodetypes="ssssscssssssssscsscssccsccsccccccccssscsccsscccscccscccsccccccsssscscssscccscssccsccccssccsccscccssccccccssssssssccccccsssccccsscsssscscssscscsssccc"
     transform="translate(-91.074121,-61.103994)" /></svg>
