<?xml version="1.0" encoding="UTF-8" standalone="no"?>
<svg
   width="1498.8789"
   height="192.96538"
   viewBox="0 0 1498.8789 192.96538"
   fill="none"
   version="1.1"
   id="svg2"
   sodipodi:docname="ondaDiv.svg"
   inkscape:version="1.3.2 (091e20e, 2023-11-25, custom)"
   xmlns:inkscape="http://www.inkscape.org/namespaces/inkscape"
   xmlns:sodipodi="http://sodipodi.sourceforge.net/DTD/sodipodi-0.dtd"
   xmlns="http://www.w3.org/2000/svg"
   xmlns:svg="http://www.w3.org/2000/svg">
  <defs
     id="defs2" />
  <sodipodi:namedview
     id="namedview2"
     pagecolor="#505050"
     bordercolor="#ffffff"
     borderopacity="1"
     inkscape:showpageshadow="0"
     inkscape:pageopacity="0"
     inkscape:pagecheckerboard="1"
     inkscape:deskcolor="#505050"
     inkscape:zoom="0.35355339"
     inkscape:cx="1647.5588"
     inkscape:cy="-400.22244"
     inkscape:window-width="1366"
     inkscape:window-height="705"
     inkscape:window-x="-8"
     inkscape:window-y="-8"
     inkscape:window-maximized="1"
     inkscape:current-layer="svg2" />
  <path
     d="M 0.0039,159.19791 0,0 h 1497.8189 v 49.05521 c 0,0 -215.95,78.0907 -296.07,83.4057 -80.11,5.316 -384.224,-25.229 -501.646,5.834 -117.421,31.063 -268.766,51.645 -411.613,54.51 -142.846,2.866 -288.486,-33.607 -288.486,-33.607 z"
     fill="#1e1e1e"
     id="path1" />
  <path
     d="m 1498.8689,159.19791 0.01,-159.1973 H 0 v 49.2837 c 0,0 365.1449,7.5131 445.2599,12.8287 80.114,5.3155 237.815,20.4699 372.265,45.1189 134.451,24.65 306.274,62.609 449.114,65.474 142.85,2.866 232.23,-13.508 232.23,-13.508 z"
     fill="#3a221c"
     id="path2" />
</svg>
