<?xml version="1.0" encoding="UTF-8" standalone="no"?>
<svg
   width="203"
   height="85"
   viewBox="0 0 203 85"
   fill="none"
   version="1.1"
   id="svg8"
   sodipodi:docname="WebGL.svg"
   inkscape:export-filename="WebGL.svg"
   inkscape:export-xdpi="380.7222"
   inkscape:export-ydpi="380.7222"
   inkscape:version="1.3.2 (091e20e, 2023-11-25, custom)"
   xmlns:inkscape="http://www.inkscape.org/namespaces/inkscape"
   xmlns:sodipodi="http://sodipodi.sourceforge.net/DTD/sodipodi-0.dtd"
   xmlns="http://www.w3.org/2000/svg"
   xmlns:svg="http://www.w3.org/2000/svg">
  <sodipodi:namedview
     id="namedview8"
     pagecolor="#505050"
     bordercolor="#ffffff"
     borderopacity="1"
     inkscape:showpageshadow="0"
     inkscape:pageopacity="0"
     inkscape:pagecheckerboard="1"
     inkscape:deskcolor="#505050"
     inkscape:zoom="1.1625616"
     inkscape:cx="101.5"
     inkscape:cy="42.57839"
     inkscape:window-width="1366"
     inkscape:window-height="705"
     inkscape:window-x="-8"
     inkscape:window-y="-8"
     inkscape:window-maximized="1"
     inkscape:current-layer="svg8" />
  <g
     clip-path="url(#clip0_124_117)"
     id="g8"
     style="fill:#eef1c6">
    <path
       d="M196.884 55.4014V56.435H195.383V60.0244H194.257V56.435H192.756V55.4014H196.884Z"
       fill="#1E1E1E"
       id="path1"
       style="fill:#eef1c6" />
    <path
       d="M201.387 60.0244V56.5101L200.448 60.0244H199.51L198.385 56.5101V60.0244H197.259V55.4014H199.135L199.886 58.4834L200.636 55.4014H202.512V60.0244H201.387Z"
       fill="#1E1E1E"
       id="path2"
       style="fill:#000000" />
    <path
       d="M149.841 59.761C148.16 60.4751 146.478 60.8322 144.778 60.8322C142.088 60.8322 139.659 60.3624 137.51 59.4227C135.362 58.4831 133.55 57.1864 132.074 55.5326C130.598 53.8788 129.458 51.9432 128.674 49.7068C127.889 47.4705 127.497 45.065 127.497 42.4904C127.497 39.8406 127.889 37.3975 128.674 35.1236C129.458 32.8497 130.579 30.8764 132.055 29.2038C133.531 27.5125 135.343 26.197 137.492 25.2386C139.64 24.2801 142.05 23.7915 144.759 23.7915C146.572 23.7915 148.309 24.0734 149.991 24.6184C151.672 25.1634 153.204 25.9715 154.568 27.0239C155.932 28.0763 157.053 29.3918 157.931 30.9516C158.809 32.5114 159.351 34.2967 159.556 36.3075H152.195C151.728 34.3343 150.85 32.8497 149.542 31.8536C148.234 30.8576 146.646 30.369 144.759 30.369C143.022 30.369 141.546 30.7073 140.332 31.3838C139.117 32.0604 138.127 32.9624 137.38 34.1088C136.632 35.2551 136.072 36.5518 135.736 37.9989C135.399 39.4459 135.212 40.9494 135.212 42.5092C135.212 43.9938 135.381 45.4409 135.736 46.8503C136.072 48.2598 136.632 49.5189 137.38 50.6465C138.127 51.774 139.117 52.6761 140.332 53.3526C141.546 54.0292 143.022 54.3675 144.759 54.3675C147.319 54.3675 149.299 53.7097 150.701 52.413C152.102 51.1163 152.905 49.237 153.148 46.7564H145.376V40.9118H160.117V60.0241H155.203L154.418 56.0212C153.055 57.8065 151.523 59.0469 149.841 59.761Z"
       fill="#1E1E1E"
       id="path3"
       style="fill:#eef1c6" />
    <path
       d="M172.653 24.6748V53.4466H189.785V60.0053H164.937V24.6748H172.653Z"
       fill="#1E1E1E"
       id="path4"
       style="fill:#eef1c6" />
    <path
       d="M136.184 64.4031C124.395 71.6195 106.721 75.7163 87.011 75.7163C51.4951 75.7163 22.7237 60.8512 22.7237 42.4906C22.7237 24.1488 51.5138 9.26487 87.011 9.26487C106.796 9.26487 124.526 13.4557 136.315 20.7097C123.461 8.55074 100.369 0.0187928 73.9891 0C33.5597 0 0.7901 19.0184 0.7901 42.4906C0.7901 65.9629 33.5596 85 73.9704 85C100.257 85 123.274 76.4869 136.184 64.4031Z"
       fill="#1E1E1E"
       id="path5"
       style="fill:#eef1c6" />
    <path
       d="M41.4443 51.4174L34.6338 21.9126H28.1986L38.2923 60.3815H44.3335L52.8325 30.1627L61.2189 60.3815H67.2789L77.7291 21.9126H70.9187L64.1082 51.4174L55.8907 21.9126H49.6618L41.4443 51.4174Z"
       fill="#1E1E1E"
       id="path6"
       style="fill:#eef1c6" />
    <path
       d="M94.7271 38.1122C93.789 36.7779 92.607 35.7631 91.2187 35.0678C89.7928 34.3536 88.1418 33.9966 86.3031 33.9966C84.2394 33.9966 82.382 34.3724 80.7685 35.1054C79.2488 35.8007 77.9543 36.8343 76.9036 38.1686C74.9712 40.6305 73.958 44.1071 73.958 48.2228C73.958 50.0457 74.2207 51.7746 74.7273 53.3156C75.2338 54.8754 76.003 56.2473 76.9786 57.3937C79.0424 59.7992 81.988 61.0771 85.4964 61.0771C87.335 61.0771 88.8359 60.8891 90.093 60.4945C91.1811 60.1562 91.9128 59.7052 92.5132 59.3105C93.2824 58.8031 93.9766 58.183 94.6145 57.4688C95.1398 56.8487 95.6089 56.1721 96.0216 55.4392C96.7346 54.1237 97.091 52.8834 97.1661 52.2444L97.2224 51.8122H92.213L92.1943 52.1693C92.0629 53.8042 89.9241 56.7171 86.1155 56.7171C80.6747 56.7171 79.3801 52.7706 79.2863 49.294H97.5226V48.8993C97.5226 46.663 97.2974 44.6145 96.8471 42.8292C96.3406 40.9687 95.6464 39.3901 94.7271 38.1122ZM85.7215 38.5069C89.7553 38.5069 91.9128 40.6868 92.3068 45.1595H79.2488C79.4552 41.5325 82.3257 38.5069 85.7215 38.5069Z"
       fill="#1E1E1E"
       id="path7"
       style="fill:#eef1c6" />
    <path
       d="M122.719 41.7956C122.232 40.2358 121.519 38.8639 120.599 37.7175C119.642 36.5336 118.479 35.6127 117.147 34.9738C115.759 34.316 114.202 33.9777 112.513 33.9777C110.956 33.9965 109.549 34.3348 108.31 34.9925C107.279 35.5187 106.359 36.2705 105.571 37.2101V25.4082H100.581V60.3629H105.327V57.9762C105.74 58.5212 106.284 59.1038 106.997 59.6112C108.348 60.5884 110.018 61.077 111.95 61.077C114.033 61.077 115.909 60.6072 117.485 59.6863C118.892 58.8595 120.093 57.6755 121.031 56.1721C121.856 54.8566 122.475 53.2968 122.888 51.549C123.245 50.0456 123.432 48.3918 123.432 46.7757C123.451 45.0279 123.207 43.3366 122.719 41.7956ZM118.235 47.471C118.235 50.2147 117.691 52.5075 116.641 54.1237C115.534 55.8338 113.92 56.6983 111.856 56.6983C108.873 56.6983 105.384 54.6123 105.384 48.7113C105.384 45.8924 105.74 43.7124 106.453 42.0587C107.485 39.672 109.23 38.5256 111.763 38.5256C114.464 38.5256 116.284 39.578 117.297 41.7768C118.123 43.5809 118.235 45.7796 118.235 47.471Z"
       fill="#1E1E1E"
       id="path8"
       style="fill:#eef1c6" />
  </g>
  <defs
     id="defs8">
    <clipPath
       id="clip0_124_117">
      <rect
         width="203"
         height="85"
         fill="white"
         id="rect8" />
    </clipPath>
  </defs>
</svg>
